<svg viewBox="0 0 1728 1296" xmlns="http://www.w3.org/2000/svg"><path d="m1533.54 987.69c-13.31 79.23-33.86 130.26-92.38 162.3-62.06 34.04-166.79 46.72-350.83 49.07h-.02c-40.84.54-85.61.54-134.68.16-163.07-1.26-291.61-6.03-392.64-13.57-75.14-5.61-135.05-12.77-182.73-21.17-98.2-17.27-144.31-39.77-163.81-64.83-56.24-72.3-45.7-240.18-39.7-386.92 5.68-138.47-49.75-269.62 172.52-309.71 326.16-58.82 957.27-64.01 1079.2 13.71 101.64 64.8 137.68 376.89 105.08 570.95z" fill="#d8e2f8"/><path d="m506.52 516.7 275.01 544.54 394.79-227.81-291.95-519.75z" fill="#dd9997"/><path d="m559.18 546.56 237.04 479.29 340.29-200.51-251.64-457.47z" fill="#fff"/><path d="m697.88 743.17h320.45v10.41h-320.45z" fill="#0c182b" transform="matrix(.8660254 -.5 .5 .8660254 -259.22 529.32)"/><path d="m718.19 778.35h320.45v10.41h-320.45z" fill="#0c182b" transform="matrix(.8660254 -.5 .5 .8660254 -274.09 544.19)"/><path d="m949.62 631.61s-3.87-81.28 37.05-98.97 80.17-22.67 98.42-13.82 65.25 30.41 71.33 38.7 6.08 49.76 14.93 62.48 26.54 9.95 77.96 72.43 162.56 189.1 192.42 222.28-33.18 220.62-33.18 220.62l-281.99 34.83s170.85-199.05 154.27-232.23c-16.59-33.18-115.29-196.57-147.63-220.62-32.35-24.05-120.26-29.03-136.85-34.01s-42.3-55.57-26.54-58.06 18.25 25.71 45.62 26.54 28.2-.83 39.81-13.27 0-36.49-21.56-31.52c-21.56 4.98-58.06 6.64-84.05 24.61z" fill="#fcb5b1"/><path d="m1164.64 480.93s24.27.27 13.27 21.01c-1.73 3.27-17.82 1.96-20.66-4-2.94-6.15 7.39-17.01 7.39-17.01z" fill="#78787a"/><path d="m964.55 620 200.09-139.07s-14.86 19.91 13.27 21.01l-204.61 129.67-17.67 5.24 8.92-16.86z" fill="#0c182b"/><path d="m501.75 1001.52c2.21-25.43 1.11-55.29 12.16-91.79 11.06-36.49 37.6-69.53 44.23-67.39s-6.64 49.69-6.64 49.69 29.86-56.46 44.23-49.79-8.85 54.22-8.85 54.22 29.86-44.23 42.02-40.92c12.16 3.32-7.74 55.29-7.74 55.29s36.49-48.66 50.87-45.34-23.22 56.4-32.07 84.05 4.42 25.43 25.43 11.06c21.01-14.38 26.54-23.22 29.86-16.59 3.32 6.64 2.21 33.18-23.22 49.76-25.43 16.59-59.72 18.8-77.41 46.45-10.99 17.17-39.14 120.54-39.14 120.54h-174.29s118.33-133.81 120.54-159.24z" fill="#fcb5b1"/><circle cx="298.82" cy="883.19" fill="#2e61d7" r="53.08"/><circle cx="298.82" cy="883.19" fill="#193a85" r="36.77"/><path d="m216.44 877.67h30.08v11.61h-30.08z" fill="#2e61d7"/><g fill="#0c182b"><path d="m661.69 601-26.8-48.12 10.7-5.96 26.8 48.12zm7.22-4.02-5.24-9.41 11.93-6.64c2.91-1.62 5.13-3.62 6.67-5.99s2.27-5 2.22-7.89-.94-5.85-2.63-8.89c-1.7-3.04-3.75-5.32-6.17-6.83s-5.04-2.25-7.85-2.23c-2.82.02-5.68.84-8.59 2.46l-12.27 6.83-5.2-9.34 12.41-6.91c3.63-2.02 7.31-3.31 11.02-3.86s7.32-.38 10.81.5c3.5.88 6.69 2.44 9.57 4.67 2.88 2.24 5.31 5.13 7.28 8.67 1.95 3.5 3.12 7.07 3.52 10.72.39 3.65.05 7.18-1.03 10.58s-2.83 6.55-5.24 9.44-5.41 5.33-9 7.33l-12.2 6.8z"/><path d="m726.34 565.89c-3.04 1.7-6.18 2.46-9.4 2.29s-6.25-1.17-9.07-2.98c-2.83-1.82-5.17-4.39-7.01-7.7s-2.8-6.66-2.86-10.02.69-6.46 2.24-9.29 3.85-5.09 6.89-6.79c2.23-1.24 4.48-1.93 6.75-2.06 2.28-.13 4.41.24 6.39 1.13s3.59 2.27 4.81 4.15l7.97 14.31c.95 2.03 1.29 4.12 1.03 6.26-.27 2.14-1.07 4.15-2.4 6.03-1.34 1.88-3.12 3.43-5.34 4.67zm-3.13-10.58c2.23-1.24 3.61-2.98 4.15-5.21s.18-4.49-1.09-6.76c-.86-1.54-1.93-2.74-3.2-3.58s-2.65-1.28-4.13-1.32-2.95.35-4.4 1.16c-1.46.81-2.55 1.85-3.3 3.13s-1.12 2.69-1.12 4.24.43 3.1 1.29 4.64c.83 1.5 1.9 2.66 3.19 3.49s2.7 1.27 4.22 1.31c1.52.05 2.98-.32 4.39-1.1zm11.88 4.81-4.97-8.93-2.91-8.92-6.05-7.17-4.52-8.11 10.22-5.69 18.45 33.13z"/><path d="m736.1 527.77-4.94-8.86 27.27-15.18 4.94 8.86zm20.81 20.2-20.04-35.99c-1.49-2.68-2.24-5.44-2.24-8.27s.75-5.48 2.23-7.94 3.73-4.53 6.73-6.2c2.27-1.27 4.47-2 6.59-2.2s4.19 0 6.19.62l-2.9 10.19c-.71-.2-1.41-.27-2.12-.2s-1.45.31-2.22.74c-1.41.78-2.29 1.81-2.66 3.09-.36 1.27-.15 2.62.63 4.02l20.23 36.33-10.43 5.81z"/><path d="m785.2 532.22-26.08-46.83 10.43-5.81 26.08 46.83zm-21.01-20.09-4.94-8.86 25.43-14.16 4.94 8.86z"/><path d="m821.23 513.04c-3.04 1.7-6.18 2.46-9.4 2.29s-6.25-1.17-9.07-2.98c-2.83-1.82-5.17-4.39-7.02-7.7-1.85-3.32-2.8-6.66-2.86-10.02s.69-6.46 2.24-9.29 3.85-5.09 6.89-6.79c2.23-1.24 4.48-1.93 6.75-2.06 2.28-.14 4.41.24 6.39 1.13s3.59 2.27 4.81 4.15l7.97 14.31c.95 2.03 1.29 4.12 1.03 6.26s-1.07 4.15-2.4 6.03c-1.34 1.88-3.12 3.43-5.35 4.67zm-3.12-10.58c2.23-1.24 3.61-2.98 4.15-5.21s.18-4.49-1.09-6.76c-.86-1.54-1.93-2.74-3.2-3.58s-2.65-1.28-4.13-1.32-2.95.35-4.4 1.16-2.55 1.85-3.3 3.13-1.12 2.69-1.12 4.24.43 3.1 1.29 4.64c.83 1.5 1.9 2.66 3.19 3.49s2.7 1.27 4.21 1.31c1.52.05 2.98-.32 4.39-1.1zm11.88 4.81-4.97-8.93-2.91-8.92-6.05-7.17-4.52-8.11 10.22-5.69 18.45 33.13z"/><path d="m847.57 497.48-18.45-33.13 10.43-5.81 18.45 33.13zm.29-24.01-6.26-.98c-1.29-4.34-1.5-8.15-.65-11.43.86-3.27 3.1-5.92 6.74-7.95 1.59-.89 3.12-1.42 4.59-1.62 1.47-.19 2.94-.04 4.4.45l-1.84 11.29c-.73-.25-1.52-.32-2.35-.21s-1.68.4-2.54.88c-1.73.96-2.8 2.26-3.23 3.9s-.05 3.52 1.14 5.66z"/></g><path d="m584.98 1076.18-21.99 109.48c-10.24-.76-20.2-1.56-29.89-2.37-61.36-5.21-111.67-11.55-152.85-18.8l108.14-141.85s33.55-9.21 60.57 7.08c27.01 16.31 36.02 46.46 36.02 46.46z" fill="#2e61d7"/><path d="m1478.23 936.27c6.05 30.77-25.46 155.69-37.07 213.72-52.74 28.94-136.29 42.44-273.15 47.29-24.18.85-50.04 1.44-77.68 1.79 47.73-59.69 183.71-234.02 167.26-262.8-11.01-19.29-46.96-78.26-76.84-127.05-24.09-39.31-44.23-72-44.23-72s26.53-92.89 91.22-87.91c0 0 230.12 183.36 250.49 286.96z" fill="#2e61d7"/><path d="m519.44 518.87s5.68-197.4-12.92-202.37c-18.6-4.98-224.29-13.3-275.04 1.66-35.33 10.41-34.17 169.2 0 169.2s251.47-1.66 263.08 4.98 24.88 26.54 24.88 26.54z" fill="#0cc4cb"/><path d="m414.2 372.72v-.2c-.02-.08-.04-.17-.05-.25v-.15c-.05-.1-.05-.2-.1-.3v-.1l-7.2-25.26c-1.02-3.44-4.16-5.81-7.75-5.84h-74.48c-3.59.03-6.73 2.4-7.75 5.84l-7.2 25.26v.1c-.05.1-.05.2-.1.3v.15c-.01.08-.03.17-.05.25v8.35c0 6.34 2.98 12.3 8.05 16.1v32.21c0 4.45 3.61 8.05 8.05 8.05h72.47c4.45 0 8.05-3.61 8.05-8.05v-32.21c5.07-3.8 8.05-9.77 8.05-16.1v-8.15zm-96.62 4.13h24.16v4.03c0 6.67-5.4 12.08-12.07 12.09-1.95 0-3.87-.47-5.6-1.37-.28-.22-.58-.41-.91-.55-3.48-2.21-5.59-6.04-5.59-10.17v-4.03zm56.36 4.03c0 6.67-5.41 12.08-12.08 12.08s-12.08-5.41-12.08-12.08v-4.03h24.16zm26.62 10.17c-.32.15-.63.33-.91.55-5.91 3.09-13.21.79-16.29-5.12-.9-1.73-1.37-3.65-1.37-5.6v-4.03h24.16v4.03c0 4.12-2.11 7.96-5.59 10.17z" fill="#fff"/><path d="m620.43 584.98h349.93v10.41h-349.93z" fill="#0c182b" transform="matrix(.8660254 -.5 .5 .8660254 -188.53 476.77)"/><path d="m644.92 652.39h221.79v10.41h-221.79z" fill="#0c182b" transform="matrix(.8660254 -.5 .5 .8660254 -227.54 466.01)"/><path d="m667.59 691.65h221.79v10.41h-221.79z" fill="#0c182b" transform="matrix(.8660254 -.5 .5 .8660254 -244.13 482.6)"/><path d="m684.5 731.63h221.79v10.41h-221.79z" fill="#0c182b" transform="matrix(.8660254 -.5 .5 .8660254 -261.86 496.42)"/><path d="m643.61 453.3 7.05-4.07 11.36 19.68 81.18-46.87-11.36-19.68 8.3-4.79 15.44 26.75-96.53 55.73z" fill="#0c182b"/><path d="m1168.01 1197.28c-24.18.85-50.04 1.44-77.68 1.79 47.73-59.69 183.71-234.02 167.26-262.8-11.01-19.29-46.96-78.26-76.84-127.05 68.24 91.68 89.63 91.68 96.4 137.01 3.39 22.69-16.84 50.27-29.58 79.62-25.34 58.35-58.51 123.68-79.56 171.43z" fill="#224cb0"/><path d="m584.98 1076.18-21.99 109.48c-10.24-.76-20.2-1.56-29.89-2.37 5.34-7.1 10.68-14.82 15.85-23.2 18.56-30.03 29.45-59.28 36.03-83.91z" fill="#224cb0"/><path d="m1418.3 955.38c-6.42-25.54-23.52-64.75-18.53-72.59s18.53-36.36 18.53-36.36-9.45 25.66-9.72 41.35 9.72 67.6 9.72 67.6z" fill="#224cb0"/><path d="m642.2 311.02s5.79-201.16-13.17-206.23c-18.95-5.07-228.56-13.55-280.29 1.69-36 10.61-34.82 172.42 0 172.42s256.26-1.69 268.1 5.07 25.36 27.05 25.36 27.05z" fill="#0cc4cb"/><path d="m535.95 165.65v-.21c-.02-.08-.04-.17-.05-.26v-.15c-.05-.1-.05-.21-.1-.31v-.1l-7.33-25.74c-1.04-3.5-4.24-5.92-7.9-5.95h-75.9c-3.65.03-6.86 2.44-7.9 5.95l-7.33 25.74v.1c-.05.1-.05.21-.1.31v.15c-.01.09-.03.17-.05.26v8.51c0 6.46 3.04 12.54 8.21 16.41v32.82c0 4.53 3.67 8.21 8.21 8.21h73.85c4.53 0 8.21-3.67 8.21-8.21v-32.82c5.17-3.87 8.21-9.95 8.21-16.41v-8.31zm-98.47 4.21h24.62v4.1c0 6.8-5.5 12.31-12.3 12.32-1.99 0-3.94-.48-5.7-1.4-.28-.22-.59-.41-.92-.56-3.55-2.25-5.7-6.16-5.69-10.36v-4.1zm57.44 4.1c0 6.8-5.51 12.31-12.31 12.31s-12.31-5.51-12.31-12.31v-4.1h24.62zm27.13 10.36c-.33.15-.64.34-.92.56-6.03 3.14-13.46.81-16.61-5.22-.92-1.76-1.4-3.72-1.4-5.7v-4.1h24.62v4.1c0 4.2-2.15 8.11-5.69 10.36z" fill="#fff"/><path d="m711.74 260.63s-5.79-201.16 13.17-206.23c18.95-5.07 228.56-13.55 280.29 1.69 36 10.61 34.82 172.42 0 172.42s-256.26-1.69-268.1 5.07c-11.83 6.76-25.36 27.05-25.36 27.05z" fill="#0cc4cb"/><path d="m924.66 121.17v-.21c-.02-.08-.04-.17-.05-.26v-.15c-.05-.1-.05-.21-.1-.31v-.1l-7.33-25.74c-1.04-3.5-4.24-5.92-7.9-5.95h-75.9c-3.65.03-6.86 2.44-7.9 5.95l-7.33 25.74v.1c-.05.1-.05.21-.1.31v.15c-.01.09-.03.17-.05.26v8.51c0 6.46 3.04 12.54 8.21 16.41v32.82c0 4.53 3.67 8.21 8.21 8.21h73.85c4.53 0 8.21-3.67 8.21-8.21v-32.82c5.17-3.87 8.21-9.95 8.21-16.41v-8.31zm-98.47 4.21h24.62v4.1c0 6.8-5.5 12.31-12.3 12.32-1.99 0-3.94-.48-5.7-1.4-.28-.22-.59-.41-.92-.56-3.55-2.25-5.7-6.16-5.69-10.36v-4.1zm57.44 4.1c0 6.8-5.51 12.31-12.31 12.31s-12.31-5.51-12.31-12.31v-4.1h24.62zm27.13 10.36c-.33.15-.64.34-.92.56-6.03 3.14-13.46.81-16.61-5.22-.92-1.76-1.4-3.72-1.4-5.7v-4.1h24.62v4.1c0 4.2-2.15 8.11-5.69 10.36z" fill="#fff"/><path d="m1033.89 383.84s-5.79-201.16 13.17-206.23c18.95-5.07 228.56-13.55 280.29 1.69 36 10.61 34.82 172.42 0 172.42s-256.26-1.69-268.1 5.07c-11.83 6.76-25.36 27.05-25.36 27.05z" fill="#0cc4cb"/><path d="m1246.82 244.38v-.21c-.02-.08-.04-.17-.05-.26v-.15c-.05-.1-.05-.21-.1-.31v-.1l-7.33-25.74c-1.04-3.5-4.24-5.92-7.9-5.95h-75.9c-3.65.03-6.86 2.44-7.9 5.95l-7.33 25.74v.1c-.05.1-.05.21-.1.31v.15c-.01.09-.03.17-.05.26v8.51c0 6.46 3.04 12.54 8.21 16.41v32.82c0 4.53 3.67 8.21 8.21 8.21h73.85c4.53 0 8.21-3.67 8.21-8.21v-32.82c5.17-3.87 8.21-9.95 8.21-16.41v-8.31zm-98.47 4.21h24.62v4.1c0 6.8-5.5 12.31-12.3 12.32-1.99 0-3.94-.48-5.7-1.4-.28-.22-.59-.41-.92-.56-3.55-2.25-5.7-6.16-5.69-10.36v-4.1zm57.44 4.1c0 6.8-5.51 12.31-12.31 12.31s-12.31-5.51-12.31-12.31v-4.1h24.62zm27.13 10.36c-.33.15-.64.34-.92.56-6.03 3.14-13.46.81-16.61-5.22-.92-1.76-1.4-3.72-1.4-5.7v-4.1h24.62v4.1c0 4.2-2.15 8.11-5.69 10.36z" fill="#fff"/></svg>