<svg viewBox="0 0 1728 1296" xmlns="http://www.w3.org/2000/svg"><path d="m1601.08 1088.66c-10.05 12.34-20.17 20.18-29.95 22.68-6.4 1.63-21.08 3.46-42.91 5.41-20.77 1.86-48.01 3.79-80.75 5.77-39.46 2.35-86.91 4.75-140.6 7.01-100.74 4.26-223.49 8.11-356.83 10.56-8.45.15-16.95.3-25.48.46-87.79 1.49-179.78 2.37-272.8 2.37-10.88 0-21.78-.02-32.68-.04-8.93-.02-17.87-.04-26.81-.08h-.01c-15.83-.06-31.69-.15-47.53-.27-9.85-.07-19.71-.15-29.55-.25-40.49-.39-80.86-.97-120.89-1.77-61.82-1.22-113.51-11.46-157.52-25.99-82.19-27.12-140.57-35.31-168.44-129.04-56.42-189.8-13.91-530.21 26.04-687.48 60.1-236.59 859.34-115.66 1308.61-103.25 372.75 10.3 308.7 758.19 198.1 893.9z" fill="#d8e2f8"/><path d="m949.33 1109.05v31.22c-105.57 1.96-217.77 3.04-330.96 2.79v-2.37z" fill="#224cb0"/><path d="m949.8 1109.05-25.95 31.68c-87.79 1.49-179.78 2.37-272.8 2.37-10.88 0-21.78-.02-32.68-.04-8.93-.02-17.87-.04-26.81-.08l48.72-33.93z" fill="#2e61d7"/><path d="m800.97 1123.94-42.47.76 14.69-13.37 36.01-.66z" fill="#83a1e7"/><path d="m640.28 1109.05-48.72 33.93h-.01c-15.83-.06-31.69-.15-47.53-.27l50.04-33.66z" fill="#193a85"/><path d="m785.35 1064.51 7.38-1.95v48.41l-7.38 11.01z" fill="#fff"/><path d="m641.29 1003.79c-15.7-16.14-84.17-127.52-18.91-168.08 65.25-40.56 138.6-13.36 153.8-66.36 0 0 10.4 21.86-37.97 45.12-21.45 10.32-71.32 8.97-103.16 45.79-42.75 49.43 6.24 143.53 6.24 143.53z" fill="#fff"/><path d="m703.02 1086.19s2.2 2.95 5.28 2.23c3.07-.72 133.73-15.24 141.22-17.93 7.78-2.8 28.67-32.64 29.21-33.55s.81-2.59-2.21-4.41-173.49 53.66-173.49 53.66z" fill="#0c182b"/><path d="m882.17 276.43h639.47v181.24h-639.47z" fill="#83a1e7"/><path d="m906.62 296.76h590.57v140.56h-590.57z" fill="#aec2ef"/><path d="m196.1 276.43h639.47v181.24h-639.47z" fill="#83a1e7"/><path d="m220.55 296.76h590.57v140.56h-590.57z" fill="#aec2ef"/><path d="m669.62 837.85s23.54 29.04 1.83 33.09-18.72-32.9-1.83-33.09z" fill="#224cb0"/><path d="m813.19 871.81s-6.27.94-16.03 2.14c-22.85 2.81-64.91 7.11-90.88 4.42-37.04-3.87-43.2-.7-57.49-6.56-1.1-.45-1.93-1.01-2.52-1.62-7.11-7.49 19.72-26.24 19.72-26.24s13.2 1.02 30.07-2.29c13.54-2.66 21.84-7 36.28-7 22.58 0 53.45 8.59 80.86 37.16z" fill="#fcb5b1"/><path d="m1470.2 726.89s-8.01 24.37-45.05 35.36c-37.05 10.99-45.05-31.45-45.05-31.45l.76-20.89.29-8.27s.02-.02.05-.06c1.41-1.9 36.82-49.63 59-61.28 2.71-1.43 5.23-2.31 7.45-2.5h.02c6.19-.55 10.18 4.17 10.18 17.34 0 2.83.03 5.54.1 8.15.07 3.49.18 6.79.34 9.92v.05c2.21 42.62 11.9 53.61 11.9 53.61z" fill="#fcb5b1"/><path d="m505.99 786.52s7.28 22.72 36.28 39.36c32.47 18.64 127.35 11.97 127.35 11.97s-16.53 22.21-4.28 41.29c0 0-135.42 35.34-174.02 6.01-38.59-29.33 14.66-98.63 14.66-98.63z" fill="#224cb0"/><path d="m797.16 873.95c-22.85 2.81-64.91 7.11-90.88 4.42-37.04-3.87-43.2-.7-57.49-6.56-1.1-.45-1.93-1.01-2.52-1.62 19.18-6.56 67.37-17.23 94.35-13.25 31.82 4.69 52.58 3.57 56.55 17.01z" fill="#e07785"/><path d="m661.13 859.84s25.79 37.82 4.21 57.89c0 0-64.41-38.98-4.21-57.89z" fill="#224cb0"/><path d="m1458.3 673.23v.05c-3.75 22.77-21.29 62.92-42.99 55.4-11.81-4.09-23.37-11.61-34.45-18.76l.29-8.27s.02-.02.05-.06c1.61-1.75 41.8-45.59 66.46-63.78h.02c6.19-.55 10.18 4.17 10.18 17.34 0 2.83.03 5.54.1 8.15.07 3.49.18 6.79.34 9.92z" fill="#e07785"/><path d="m527.95 895.02c-1.09 11.51-2.99 23.63-5.75 36.48-2.42 11.3-4.22 25.45-5.54 41.12-.29 3.48-.57 7.02-.81 10.62-.1 1.35-.18 2.71-.26 4.08-3.62 56.94-2.01 127.12-1.14 155.15-40.49-.39-80.86-.97-120.9-1.77-61.81-1.22-113.88-10.38-157.52-25.99-2.96-70.86-15.9-125.93-29.28-165.12-4.45-13.09-8.95-24.41-13.16-33.94s-8.09-17.3-11.32-23.29c-5.42-10.05-8.96-15.07-8.96-15.07s50.9-24.04 112.92-49.6c90.72-37.35 205.22-78.02 218.97-51.58 18.56 35.68 27.2 72.42 22.74 118.91z" fill="#2e61d7"/><path d="m807.59 893.23s-2.5 10.72-21.1 17.98h-.02c-6.54 2.56-15.06 4.67-26.16 5.75-3.22.31-6.29.58-9.24.82-70 5.57-67.59-9.75-91.01-8.97-4.74.15-7.92-1.21-9.93-3.51-1.52-1.73-2.39-3.98-2.81-6.51-1.9-11.47 5.61-28.66 5.61-28.66s42.16-11.06 62.62-11.06 51.33 1.81 58.27 7.07c6.95 5.28-41.29 18.4-50.17 17.63 0 0 20.28 7.34 50.85 7.72 30.59.39 33.09 1.74 33.09 1.74z" fill="#fcb5b1"/><path d="m394.07 458.85c-29.96-3.05-87.35 42.05-94.94 65.25-17.41 53.22-26.81 165.96-75.28 226.73-68.32 85.65-50.53 126.46-50.53 126.46s43.23-62.21 197.6-8.95 153.29 15.48 162.86-30.49c10.03-48.24-75.64-102.27-65.52-167.87 10.83-70.22 28.47-200.68-74.18-211.12z" fill="#fff"/><path d="m706.37 909c12.51 3.77 28.95 6.96 44.69 8.79-70 5.57-67.59-9.75-91.01-8.97-8.3.27-12.09 2.74-13.05-3.18.96-.07 2-.19 3.12-.33 10.44-1.32 27.94-4.81 56.25 3.69z" fill="#e07785"/><path d="m522.67 971.4-.02.02c-2.16 2.08-4.14 4.65-7.06 5.72-35.43 12.89-75.98 24.84-149.31 20.87-84.51-4.58-134.68-36.43-163.28-59.02-4.45-12.49-8.99-24.38-13.2-33.47-8.56-7.11-11.03-10.88-14.38-17.57 1.74-.91 4.06-1.35 6.85-1.36 13.82-.18 39.42 9.52 65.9 20.35 43.8 17.91 229.68 38.69 268.47 56.19 6.32 2.86 8.74 5.64 6.01 8.28z" fill="#224cb0"/><path d="m665.33 917.74s-68.52 33-142.66 53.66c-2.27.64-4.55 1.25-6.82 1.86-36.51 9.75-73.93 16.19-104.81 13.94-76.15-5.53-174.93-42.97-217.45-78.4-8.55-7.11-14.83-14.17-18.16-20.85-.94-1.86-1.64-3.67-2.12-5.46-13.88-53.02 68.14-71.61 112.92-57.58 28.74 9.01 55.05 26.62 79.53 42.44 31.81 20.57 60.23 38.97 85.41 35.73 13.92-1.79 34.59-5.53 57.63-10.09.04 0 .08-.02.12-.02 6.2-1.23 12.56-2.52 19.02-3.85 61.18-12.56 129.89-28.52 133.06-29.25-1.28.46-12.72 5.14-7.6 27.75 5.41 23.93 11.92 30.11 11.92 30.11z" fill="#2e61d7"/><path d="m406.04 486.86s-55.57 10.43-67.73 55.59c-12.16 45.15-25.14 136.5 71.78 160.33 0 0 68.89-27.21 56.73-151.67 0 0-13.89-56.73-60.78-64.26z" fill="#fcb5b1"/><path d="m845.82 1067.23-141.72 19.25c-1.46.2-2.23-1.68-1.04-2.56l43.07-32.05c.19-.14.41-.23.64-.27l128.98-19.17c1.31-.19 2.16 1.34 1.29 2.35l-25.14 29.15c-1.56 1.81-3.72 2.98-6.09 3.3z" fill="#14294c"/><path d="m381.32 560.55s-3.14 6.81-1.81 12.68c.98 4.35 3.45 8.55 16.46 8.88s14.1-3.33 14.98-7.25c1.16-5.15-.33-10.55-.33-10.55s-4.76-5.85-29.3-3.76z" fill="#fff"/><path d="m442.06 569.43s-5.7 7.14-.09 15.36c0 0 3.26 2.37 10.28 2.67 13.22.55 14.57-1.98 15.15-6.51.46-3.59 0-8.51-.68-11.79 0 0-16.99-4.81-24.66.28z" fill="#fff"/><path d="m390.64 572.19c.13 6.48.89 9.52 8.76 9.9s9.02-5.46 9.02-10.92.81-9.57-9.02-10.54c-8.84-.87-8.89 5.46-8.76 11.56z" fill="#0c182b"/><path d="m442.06 569.43s9.4-7.05 24.66-.28c0 0-13.23-2.42-24.66.28z" fill="#0c182b"/><path d="m428.71 619.2c8.5-1.06 12.28 3.32 9.51 4.97s-18.41 3.61-17.95-.48c.18-1.63 5.2-4.09 8.45-4.49z" fill="#e07785"/><path d="m456.73 568.04c4.92 0 8.07 3.07 8.06 8.08 0 7.16-1.03 10.98-8.5 10.96-9.12-.01-10.47-19.06.43-19.04z" fill="#0c182b"/><path d="m375.65 547.2s7.09-7.38 20.84-3.76 12.01 6.08 12.01 6.08-28.08-2.75-32.85-2.32z" fill="#0c182b"/><path d="m452.71 553.57c11.5.75 13.53 5.5 13.53 5.5l-30.68-1.59s3.91-4.78 17.15-3.91z" fill="#0c182b"/><path d="m427.07 595.88s12.16 23.16 10.23 26.44-13.12 2.32-13.12 2.32 10.24-2.61 9.66-5.12-7.73-21.7-6.77-23.63z" fill="#0c182b"/><path d="m442.22 644.31s-.2 3.17-1.72 7.34c-2.92 8.01-10.75 19.67-31.57 19.86-19.03.18-27.46-12.6-31.15-22.83-2.45-6.8-2.81-12.47-2.81-12.47s40.68 17.36 67.25 8.1z" fill="#0c182b"/><path d="m777.12 869.01s22.77-1.33 43.22 0 31.84 1.14 31.84 1.14-25.08 21.03-28.36 23.16-34.73.58-54.61 0-34.35-1.93-34.35-1.93 30.29-20.22 42.26-22.36z" fill="#fff"/><path d="m442.22 644.31s-.2 3.17-1.72 7.34c-2.37.41-4.99.81-7.83 1.2-27.58 3.77-45.65-.65-54.89-4.17-2.45-6.8-2.81-12.47-2.81-12.47s40.68 17.36 67.25 8.1z" fill="#fff"/><path d="m1461.9 632.29c.37 9.58-2.01 18.73-6.03 27.19-.02.05-.03.1-.03.11-23.46 51.14-48.35 51.14-48.35 51.14-55.29-1.88-81.58-59.08-81.66-104.57-.03-17.33 1.69-31.15 5.46-42 7.99-23.03 25.11-33.43 54.2-34.61 76.22-3.09 72.08 60.77 72.08 60.77s19.39-13.89 22.28 9.84-17.95 32.12-17.95 32.12z" fill="#fcb5b1"/><path d="m1346.15 594.38s-4.65 10.08 1.14 16.64c0 0 10.03 3.47 16.5-.68 0 0 10.03-5.21 5.21-15.96 0 0-17.42-4.2-22.84 0z" fill="#fff"/><path d="m1346.15 594.38s0-2.36 11.99-2.23c10.3.11 10.85 2.23 10.85 2.23s-14.14-2.6-22.84 0z" fill="#0c182b"/><path d="m1392.59 592.15s-4.2 10.91 3.18 17.71c0 0 7.53 2.32 16.79-2.02 0 0 5.93-8.58 0-17.82 0 0-15.92-.83-19.97 2.13z" fill="#fff"/><path d="m1347.29 611.02s6.37 2.26 16.5-.68c0 0-6.51 5.02-16.5.68z" fill="#0c182b"/><path d="m1392.59 592.15s3-2.74 10.4-3.12c2.62-.14 6.29-.29 9.57.99 0 0-7.53-.97-19.97 2.13z" fill="#0c182b"/><path d="m1395.77 609.86s7.24 1.6 16.79-2.02c0 0-9.26 5.2-16.79 2.02z" fill="#0c182b"/><path d="m1461.9 632.29c.37 9.47-3.39-42.58-3.39-42.58 3.9-2.4 18.84-10.13 21.34 10.46 2.89 23.73-17.95 32.12-17.95 32.12z" fill="#fcb5b1"/><path d="m1325.84 594.38s1.07-7.51-2.04-14.51c-2.57-5.8-8.56-15.03-9.77-29.25-2.78-32.8 24.6-50.82 46.95-55 14.39-2.69 32.25 6.14 32.25 6.14s40.24-31.98 76.09 11.73c13.42 16.36 18.25 60.14 15.36 93.82-12.32 34.91-26.82 47.85-26.82 47.85 5.11-14.47 4.05-22.87 4.05-22.87s7.69-37 7.84-45.96c-5.18 4.54-6.9.43-11.24 3.38-3.04 2.07-12.46 9.4-12.23 14.22-1.12-24.05-14.47-69.56-44.79-68.01-7.58.39-9.64 4.87-12.04 7.45 0 0-26.37-12.25-41.05.16-8.81 7.45-7.08 33.11-22.56 50.85z" fill="#0c182b"/><path d="m1343.38 585.84c-.19-1.07 13.55-12.01 27.35-1.3 0 0-10.68.22-27.35 1.3z" fill="#0c182b"/><path d="m1387.67 585.12c.29-.97 7.69-11.98 27.64-3.81 0 0-23.15 2.07-27.64 3.81z" fill="#0c182b"/><path d="m1377.03 637.31c7.22-1.16 10.32 2.71 7.93 4.27s-15.67 3.7-15.19 0c.19-1.48 4.5-3.82 7.26-4.26z" fill="#e07785"/><path d="m1360.72 596.42c1.58 5.45 3.36 16.1-5.26 16.1-9.18 0-10.84-12.2-8.15-17.29 2.12-4.01 11.73-4.57 13.4 1.19z" fill="#0c182b"/><path d="m1394.07 603.93c3.4 9.91 16.05 7.83 15.16-2.75-.72-8.54-3.56-11.76-9.77-11.07-7.16.79-6.84 9.58-5.39 13.82z" fill="#0c182b"/><path d="m1376.43 612.52s-9.84 27.98-3.09 29.14 12.35-1.16 12.35-1.16-9.78.57-10.61-3.28c-1.54-7.14 1.35-24.7 1.35-24.7z" fill="#0c182b"/><path d="m1421.25 654.35c-.24 6.32-2.29 14.39-9.61 20.98-11.51 10.36-33.46 11.11-44.82-1.27-.97-1.04-1.85-2.19-2.65-3.43-1.56-2.39-2.76-5.13-3.56-8.23 0 0 47.16-6.85 59.42-18.63 0 0 1.43 4.48 1.22 10.57z" fill="#0c182b"/><path d="m1461.9 632.29c.37 9.47-3.39-42.58-3.39-42.58 3.9-2.4 18.84-10.13 21.34 10.46 2.89 23.73-17.95 32.12-17.95 32.12z" fill="#fcb5b1"/><path d="m853.91 875.26s15.73-8.52 34.47-13.64c9.32-2.55 17.1-1.64 25.64 1.49 33.08 12.13 23.81 6.05 44.27 12.13 20.46 6.07 166.14 37.96 183.79 33.91 42.36-9.72 86.23-74.49 86.23-74.49l16.15 121.33s-25.1 17.12-72.06 27.28c-75.55 16.34-206.52-62.11-250.01-60.52-43.48 1.6-35.19 5.58-47.06 4.03s-4.32-6.59-4.32-6.59-11.75 8.87-13.91 5.64c-2.16-3.24-1.92-10.07 6.11-13.79 0 0-13.31 6.95-14.75 5.64s-4.32-10.43 2.52-14.03c0 0-8.87 6.83-11.51 4.2s-8.75-8.03 3.24-16.19c11.99-8.15 21.46-11.63 21.46-11.63s-15.03-.52-10.27-4.76z" fill="#fcb5b1"/><path d="m1421.25 654.35c-12.49 8.83-39.22 12.7-57.09 16.29-1.56-2.39-2.76-5.13-3.56-8.23 0 0 47.16-6.85 59.42-18.63 0 0 1.43 4.48 1.22 10.57z" fill="#fff"/><path d="m1624.38 770.31c-33.96-35.5-154.17-43.41-154.17-43.41s-14.37 20.51-50.62 24.8c-36.27 4.29-39.48-20.89-39.48-20.89s-49.65 22.05-104.59 48.77c-27.79 13.5-98.03 109.46-98.03 109.46 0 51.08 40.11 82.24 40.11 82.24 33.13-13.12 75.28-35.08 75.28-35.08s6.51-3.72 13.32 81.19c3.22 40.13 1.54 81.04-.03 112.32 53.69-2.26 101.13-4.66 140.6-7.02 32.74-1.98 59.98-3.91 80.75-5.77 21.83-1.95 36.51-3.78 42.91-5.41 9.78-2.5 19.89-10.35 29.95-22.69.26-22.35 1.07-46.33-.68-71.44-.39-5.54-.78-11.17-1.15-16.89-1.84-27.48-3.48-56.49-3.98-83.01 14.42.76 25.37 1.07 25.95.29.02-.03.02-.05.02-.05 1.97-9.65 37.82-111.93 3.87-147.43zm-28.18 88.77c1.01 1.19.8 2.61-.39 4.24.11-1.45.24-2.86.39-4.24z" fill="#0cc4cb"/><path d="m864.18 880.02s26.45-8.98 34.38-2.32c5.1 4.28 18.52 13.99 18.52 13.99s-17.27-8.22-21.94-10.91c-6.96-4-18.03-2.47-30.96-.76z" fill="#e07785"/><path d="m841.19 892.75s14.91 2.77 9.8 10.88c0 0 15.06.69 12.23 8.39 0 0 10.73.57 7.79 8.15 0 0 11.05-.33 11.15 5.37 0 0 .58-7.33-8.78-6.95 0 0-.68-8.2-7.53-8.3 0 0-2.89-8.01-12.06-8.01 0 0-.52-11.85-12.61-9.54z" fill="#e07785"/><path d="m872.03 892.44s5.35 3.54 14.04 3.68l8.68.14s-15.2 4.79-22.72-3.83z" fill="#e07785"/><path d="m1620.51 917.74s0 .02-.02.05c-.44 1.66-12.28 45.7-21.97 82.71-2.06 7.93-4.04 15.53-5.78 22.31-6.9 26.81-43.12 69.72-65.24 94.11-20.77 1.85-48.01 3.78-80.75 5.77 19.93-30.66 55.67-86.86 61.47-104.23 8.1-24.33 24.25-104.9 24.25-104.9l8.07.39h.1l53.89 2.55 25.99 1.23z" fill="#fcb5b1"/><g fill="#fff"><path d="m710.91 542.24c-48.76.18-54.85 6.27-54.86 54.86 0-48.59-6.08-54.68-54.84-54.86 48.76.18 54.85-5.88 54.84-54.46 0 48.59 6.1 54.64 54.86 54.46z"/><path d="m971.94 763.87c-48.76.18-54.85 6.27-54.86 54.86 0-48.59-6.08-54.68-54.84-54.86 48.76.18 54.85-5.88 54.84-54.46 0 48.59 6.1 54.64 54.86 54.46z"/><path d="m1108.22 428.2c-33.55.12-37.74 4.32-37.75 37.75 0-33.43-4.19-37.62-37.73-37.75 33.55.12 37.74-4.04 37.73-37.47 0 33.43 4.2 37.59 37.75 37.47z"/><path d="m1563.09 478.42c-33.55.12-37.74 4.32-37.75 37.75 0-33.43-4.19-37.62-37.73-37.75 33.55.12 37.74-4.04 37.73-37.47 0 33.43 4.2 37.59 37.75 37.47z"/><path d="m213.17 529.31c-33.55.12-37.74 4.32-37.75 37.75 0-33.43-4.19-37.62-37.73-37.75 33.55.12 37.74-4.04 37.73-37.47 0 33.43 4.2 37.59 37.75 37.47z"/><path d="m888.45 1002.57c22.51-44.23 132.6-97.63 187.35-104.98 66.65-8.94 40.52-50.1 40.52-50.1s36.41 63.21-88.04 67.17c-147.71 4.7-139.83 87.91-139.83 87.91z"/></g><path d="m1292.87 936.21s23.25-41.19 46.51-61.91c0 0-19.59 43.96-46.51 61.91z" fill="#09959a"/><path d="m1307.66 1092.88s36.03-63.31 70.67-57.83c43.05 6.81 66.21-32.48 66.21-32.48s.3 49.65-76.8 56.79c-36.3 3.36-60.09 33.52-60.09 33.52z" fill="#09959a"/><path d="m1532.47 913.57s-8.62-8.76-6.89-30.76c1.74-22 8.05-30.68 8.05-30.68l3.53 27.21s-1.74-24.31 13.89-37.63c0 0-5.12 43.23-12.85 56.15s-5.73 15.71-5.73 15.71z" fill="#09959a"/><path d="m1410.96 1023.09s27.4-18.14 26.63-32.8c0 0 11.19 18.14-26.63 32.8z" fill="#09959a"/><path d="m713.24 1081.42c3.49-6.23 32.07-26.04 36.65-27.49s121.65-19.65 121.65-18.09-23.27 27.37-25.2 28.09-134.8 20.5-133.11 17.48z" fill="#2e61d7"/><path d="m749.43 1058.82c-3 .43-5.86 1.53-8.37 3.22-7.92 5.33-24.5 17.03-16.48 16.38 10.37-.84 117.43-14.33 119.72-15.85s20.13-19.24 17.48-19.36c-2.34-.11-91.22 12.59-112.36 15.61z" fill="#fff"/><path d="m1391.4 537.96s.2-33.01 5.74-37.15c0 0 65.2-42.25 86.79 59.27-1.97 4.94-9.05-5.12-19.96-.96-16.9 6.44-24.17 6.12-30.02 7.05 0 0-12.48-49.19-42.54-28.21z" fill="#14294c"/><path d="m381.32 560.55s5.28-2.29 15.91-1.65c11.76.7 13.38 5.41 13.38 5.41s-1.91-2.63-12.78-3.62c-7.96-.72-16.52-.14-16.52-.14z" fill="#070f19"/><path d="m384.64 580s2.84 3.01 14.28 3.01c6.19 0 8.55-1.82 8.55-1.82s-12.39 2.08-22.83-1.19z" fill="#0c182b"/><path d="m441.97 584.79s2.84 3.01 14.28 3.01c6.19 0 8.55-1.82 8.55-1.82s-12.39 2.08-22.83-1.19z" fill="#0c182b"/><path d="m349.61 737.8c53.89 31.35 34.36 43.4 34.36 43.4s-26.53-34.48-52.33-33.76c-16.48.46-14.95 24.35-17.84 16.16-6.13-17.37-.48-26.53-15.43-46.06s-29.03-68.31-29.03-68.31 20.61 53.86 80.27 88.57z" fill="#eaeaea"/><path d="m496.58 804.36c9.51-18.72 6.03 31.59-8.68 34.72s-10.61-2.17-9.16-8.2-12.3 3.13-19.53 3.38 29.66-14.71 37.38-29.9z" fill="#eaeaea"/><path d="m508.81 892.98c-23.04 4.56-43.71 8.3-57.63 10.09-25.19 3.24-53.6-15.16-85.41-35.73 12.94 6.65 55.08 27.87 69.76 29.45 17.43 1.88 65.25-2.2 73.17-3.79.04-.01.09-.02.12-.02z" fill="#224cb0"/><path d="m1331.69 511.67c26.82-25.51 61.54-9.91 61.54-9.91-1.93 3.86-4.22 9.52-5.32 16.67-1.45 9.46-.18 17.3.99 22.06-1.59-1.22-16.25-10.38-32.64-6.69-7.8 1.76-12.61 6.71-14.74 12.48-4.52 12.27 2.86 35.43-5.79 43.74 0 0-1.24-9.99-6.88-17.2-10.43-13.34-15.86-43.37 2.83-61.15z" fill="#14294c"/></svg>