<?xml version="1.0" encoding="UTF-8"?><svg id="Layer_2" xmlns="http://www.w3.org/2000/svg" viewBox="0 0 1400 500"><defs><style>.cls-1{fill:#2e61d7;}</style></defs><g><path class="cls-1" d="m601.14,318.96l-5.31-18.54h-2.07c-4.23,6.74-10.24,11.95-18.02,15.62-7.78,3.67-16.64,5.51-26.57,5.51-17.02,0-29.86-4.56-38.5-13.68-8.64-9.12-12.96-22.23-12.96-39.34v-94.49h39.53v84.64c0,10.46,1.86,18.3,5.57,23.53,3.71,5.23,9.63,7.84,17.76,7.84,11.06,0,19.05-3.69,23.98-11.08,4.93-7.39,7.39-19.64,7.39-36.75v-68.18h39.53v144.92h-30.33Z"/><path class="cls-1" d="m806.72,318.96h-39.53v-84.64c0-10.45-1.86-18.3-5.57-23.53-3.72-5.23-9.64-7.84-17.76-7.84-11.06,0-19.05,3.69-23.98,11.08-4.93,7.39-7.39,19.64-7.39,36.75v68.18h-39.53v-144.92h30.2l5.31,18.54h2.2c4.41-7,10.48-12.29,18.21-15.88,7.73-3.58,16.53-5.38,26.38-5.38,16.85,0,29.64,4.56,38.37,13.68,8.73,9.12,13.09,22.27,13.09,39.47v94.49Z"/><path class="cls-1" d="m845.73,136.58c0-12.88,7.17-19.31,21.52-19.31s21.52,6.44,21.52,19.31c0,6.14-1.79,10.91-5.38,14.32-3.59,3.41-8.97,5.12-16.14,5.12-14.35,0-21.52-6.48-21.52-19.44Zm41.22,182.38h-39.53v-144.92h39.53v144.92Z"/><path class="cls-1" d="m1008.02,321.55c-17.02,0-30.38-6.18-40.05-18.54h-2.07c1.38,12.1,2.07,19.1,2.07,21v58.72h-39.53v-208.69h32.15l5.57,18.79h1.81c9.25-14.34,22.94-21.52,41.09-21.52,17.11,0,30.5,6.61,40.18,19.83,9.68,13.22,14.52,31.59,14.52,55.09,0,15.47-2.27,28.91-6.8,40.31-4.54,11.41-11,20.09-19.38,26.05-8.38,5.96-18.23,8.94-29.55,8.94Zm-11.67-118.6c-9.77,0-16.9,3-21.39,9.01-4.49,6.01-6.83,15.92-7,29.75v4.28c0,15.55,2.31,26.7,6.94,33.44,4.62,6.74,11.95,10.11,21.97,10.11,17.71,0,26.57-14.6,26.57-43.81,0-14.26-2.18-24.95-6.55-32.08-4.36-7.13-11.21-10.69-20.55-10.69Z"/><path class="cls-1" d="m1228.12,246.24c0,23.59-6.22,42.04-18.66,55.35-12.44,13.31-29.77,19.96-51.98,19.96-13.91,0-26.18-3.05-36.81-9.14-10.63-6.09-18.79-14.84-24.5-26.25-5.7-11.41-8.56-24.71-8.56-39.92,0-23.68,6.18-42.08,18.54-55.22,12.36-13.13,29.73-19.7,52.11-19.7,13.91,0,26.18,3.03,36.81,9.07,10.63,6.05,18.8,14.73,24.5,26.05,5.7,11.32,8.55,24.59,8.55,39.79Zm-100.2,0c0,14.35,2.35,25.19,7.06,32.54,4.71,7.35,12.38,11.02,23.01,11.02s18.12-3.65,22.75-10.95c4.62-7.3,6.94-18.17,6.94-32.6s-2.33-25.1-7-32.28c-4.67-7.17-12.31-10.76-22.94-10.76s-18.15,3.56-22.81,10.69-7,17.91-7,32.34Z"/><path class="cls-1" d="m1361.89,275.92c0,14.86-5.16,26.18-15.49,33.96-10.33,7.78-25.77,11.67-46.34,11.67-10.54,0-19.53-.71-26.96-2.14-7.43-1.43-14.39-3.52-20.87-6.29v-32.67c7.34,3.46,15.62,6.35,24.82,8.68,9.2,2.33,17.3,3.5,24.3,3.5,14.34,0,21.52-4.15,21.52-12.44,0-3.11-.95-5.64-2.85-7.58-1.9-1.94-5.18-4.15-9.85-6.61-4.67-2.46-10.89-5.34-18.67-8.62-11.15-4.67-19.34-8.99-24.56-12.96-5.23-3.97-9.03-8.53-11.41-13.67-2.38-5.14-3.57-11.47-3.57-18.99,0-12.88,4.99-22.83,14.97-29.88,9.98-7.04,24.13-10.56,42.45-10.56s34.43,3.8,50.94,11.41l-11.92,28.52c-7.26-3.11-14.04-5.66-20.35-7.65-6.31-1.99-12.75-2.98-19.31-2.98-11.67,0-17.5,3.16-17.5,9.46,0,3.54,1.88,6.61,5.64,9.2,3.76,2.59,11.99,6.44,24.69,11.54,11.32,4.58,19.62,8.86,24.89,12.83,5.27,3.98,9.16,8.55,11.67,13.74,2.51,5.18,3.76,11.36,3.76,18.54Z"/></g><g><path class="cls-1" d="m178.99,58.5c58.72,15.19,111.52,69.32,144.88,117.99,38.3,55.92,74.38,137.1,63.03,206.06-5.95,33.52-27.56,59.6-63.67,58.95-30.36-.83-57.9-16.71-81.52-34.44,27.88,17.79,64.54,35.58,97.71,24.7,34.1-12.27,38.21-53.51,33.84-84.79-8.41-56.52-37.27-108.99-72.44-153.41-21.07-26.25-45.55-50.39-73.58-69.15-16.99-11.28-37.26-21.71-57.04-25.14,0,0,8.78-40.76,8.78-40.76h0Z"/><path class="cls-1" d="m99.55,416.78c-13.57-59.12,10.15-130.91,37.98-182.94,31.98-59.76,87.42-129.18,153.85-150.87,32.49-10.16,65.6-2.99,81.65,29.35,13.25,27.33,11.84,59.09,6.98,88.22,2.94-32.94,1.85-73.67-23.09-98.1-26.6-24.61-65.1-9.27-90.85,9.03-46.28,33.5-79.56,83.3-102.79,134.97-13.59,30.8-23.73,63.64-27.48,97.17-2.19,20.28-2.1,43.07,3.97,62.21,0,0-40.22,10.98-40.22,10.98h0Z"/><path class="cls-1" d="m447.7,318.08c-45.4,40.23-119.78,53.79-178.78,54.28-67.84.53-155.2-14.85-206.13-62.8-24.48-23.66-34.05-56.15-13.34-85.73,17.64-24.72,46.2-38.69,74.1-48.38-30.32,13.19-65.56,33.66-75.06,67.26-8.86,35.14,23.04,61.59,51.43,75.43,51.58,24.58,111.23,29.95,167.71,25.59,33.55-2.82,67.24-9.65,98.46-22.42,18.85-7.79,38.82-18.78,52.71-33.28,0,0,28.9,30.05,28.9,30.05h0Z"/><path class="cls-1" d="m296.64,206.01v72.97c0,8.33-1.86,15.63-5.59,21.91-3.73,6.27-9.12,11.08-16.16,14.42-7.05,3.34-15.38,5.01-24.99,5.01-14.5,0-25.76-3.71-33.79-11.15-8.02-7.43-12.03-17.6-12.03-30.51v-72.66h23.83v69.04c0,8.69,1.75,15.07,5.25,19.13,3.5,4.06,9.28,6.09,17.36,6.09s13.49-2.04,17.01-6.13,5.28-10.5,5.28-19.25v-68.88h23.83Z"/></g></svg>