<svg viewBox="0 0 1728 1296" xmlns="http://www.w3.org/2000/svg"><path d="m1658.18 985.93c-18.67 78.9-53.46 129.6-108.06 126.5-28.65-1.62-66.61-1.65-111.57-.51-80.07 2.02-182.32 7.67-293.58 14.36-226.97 13.63-491.48 31.53-681.94 31.53-65.7 0-122.59-2.13-166.09-7.3-140.54-16.71-184.29-65.59-203.33-164.58-14.03-72.96-14.63-173.16-30.67-307.8-32.01-268.7-20.9-543.01 541.41-539.91 562.29 3.08 926.32 3.95 1009.34 263.72 56.8 177.72 80.29 432.69 44.49 583.99z" fill="#d8e2f8"/><path d="m345.34 975.11v51.39h510.76v-102.42h-510.76z" fill="#224cb0"/><path d="m635.1 403.03s-105.65 21.03-121.66 232.42c-6.06 80.08-164.95 78.84-214.44 208.75 0 0 125.24-4.51 213.4 57.36 38.57 27.07 90.48 53.45 140.01 52.76 63.67-.88 123.79-34 150.76-35.74 47.95-3.09 58.77-38.67 58.77-38.67s-86.61-190.61-111.36-213.62 44.44-77.42-9.28-196.24c-37.12-82.1-106.2-67.02-106.2-67.02z" fill="#fff"/><path d="m566.02 905.18s33 12.89 42.79 0 24.65-99.81 34.54-112.02c7.22-8.91 15.55 15.66 7.73 122.67-2.33 31.9-9.99 57.95-59.29 58.43-67.02.66-25.78-69.08-25.78-69.08z" fill="#fcb5b1"/><path d="m1658.18 985.93c-18.67 78.9-53.46 129.6-108.06 126.5-183.73-10.44-750.83 45.38-1087.1 45.38-65.7 0-122.59-2.13-166.09-7.3-140.54-16.71-184.29-65.59-203.33-164.58h1564.57z" fill="#193a85"/><path d="m683.56 842.28c1.82 52.9-.52 65.99 14.95 73.72 21.41 10.71 30.42 8.76 30.42 8.76s16.5 59.02 0 63.24-46.74 4.12-61.18-6.87c-14.44-11-17.85-37.9-13.71-102.42 2.07-32.26 4.05-82.08 13.02-87.23 6.7-3.85 15.47 20.9 16.5 50.8z" fill="#fcb5b1"/><path d="m694.34 913.44s17.07 5.14 20.16 39.17-21.65 37.98-21.65 37.98c-.44 3.29 215.36.58 201.06-55.37-14.05-54.99-28.42-58.76-47.43-58.92-31.96-.27-152.14 37.13-152.14 37.13z" fill="#2e61d7"/><path d="m568.08 979.42c-5.52 8.68-48.46 6.19-117.54 6.19s-149.51-8.25-176.32-56.71c-26.81-48.47 24.78-84.69 24.78-84.69 8.16-11.63 59.7-2.21 108.96 10.13 2.05.52 4.2 1.38 6.39 2.42 6.21 2.93 12.78 7.22 18.36 8.73 7.39 2.01 13.61.9 19.95 1.48 1.78.16 3.56.45 5.38.98 51.76 15.03 67.44 22.33 114.18 34.13 8.06 2.04 8.15 58.02-4.14 77.34z" fill="#2e61d7"/><path d="m666.96 441.49c-24.75 0-87.19 24.78-90.63 127.89s86.61 125.11 86.61 125.11 96.33 0 87.3-130.61c-8.47-122.48-83.28-122.39-83.28-122.39z" fill="#fcb5b1"/><path d="m629.17 528.18s-8.1 21.3 6.19 25.26c7.5 2.08 21.65 2.02 30.16 0 5.01-1.19 6.27-17.83 0-24.36-1.27-1.33-12.45-2.61-15.47-3.18-10.19-1.93-17.75.69-20.88 2.28z" fill="#fff"/><path d="m700.41 509.92s15.81-7.41 26.12-5.93 10.65 5.93 10.65 5.93-24.75-.99-36.78 0z" fill="#0c182b"/><path d="m626.06 502.53s14.52-7.04 25.48-4.5c10.96 2.55 17.14 9.76 17.14 9.76s-21.31-9.24-42.62-5.26z" fill="#0c182b"/><path d="m708.83 529.08s-4.77.9-4.77 9.92 1.06 13.95 3.87 14.95 22.21 1.37 28.4-.82 7.95-19.74 3.31-24.38-25.78-1.48-30.8.32z" fill="#fff"/><g fill="#0c182b"><path d="m722.62 554.59c-8.78 0-11.4-25.39 0-25.82s11.15 13.77 10.78 20.66-10.78 5.17-10.78 5.17z"/><path d="m707.92 528.76s6.32-4.52 22.94-3.61c7.28.4 8.76 3.61 8.76 3.61s-11.26-3.18-31.71 0z"/><path d="m651.11 555.02c-9.84-1.7-11.15-25.8 1.9-26.25s11.51 13.15 10.34 20.37c-1.16 7.14-12.24 5.88-12.24 5.88z"/><path d="m708.95 553.96s6.09.55 14.44.4c8.35-.16 11.04-.4 11.04-.4s-6.08 1.49-13.16 1.41-12.32-1.41-12.32-1.41z"/><path d="m629.17 528.18s8.64-3.35 16.24-3.61 20.11 4.51 20.11 4.51-23.07-4.27-36.35-.9z"/><path d="m639.5 552.97s6.38 2.58 12.01 2.45 11.11-1.28 11.11-1.28-14.26 1.63-23.11-1.16z"/><path d="m694.34 574.88s6.5 25.61 3.92 26.38-13.4 0-13.4 0 10.83-1.29 10.57-4.9-1.08-21.48-1.08-21.48z"/><path d="m708.45 639.22c-2.73 10.39-5.71 5.04-23.59-1.11-11.13-3.82-29.18-3.64-40.11-2.05-10.95 1.57-10.06-.42-10.76-3.18-.35-1.38 2.58-5.08 9.51-8.29h.02c6.86-3.19 17.64-5.89 33.01-5.37 13.83.48 30.06 7.51 32.01 16.23.26 1.24.26 2.49-.08 3.77z"/><path d="m948.65 939.07h-151.33c-4.66 0-7.41-5.24-4.75-9.07l23.71-34.25c3.24-4.67 8.56-7.46 14.25-7.46h152.65c4.73 0 7.46 5.37 4.67 9.2l-25.21 34.49c-3.26 4.46-8.46 7.1-13.99 7.1z"/></g><path d="m1188.81 602.05c0 3.84 9.15 42.31 2.29 55.26-5.09 9.62 96.74-16.65 135.79-18.72 0 0-14.86-48.67-17.76-57.52-4.26-13.03-18.06-78-29.86-97.81-46.3-77.73-159.77-52.58-167.5-33.13s-.62 35.29.66 46.84c1.29 11.55-13.3 43.15-8.15 49.84s18.41 4.27 18.41 4.27 9.04 41.34 19.35 48.64c10.3 7.3 29.16 5.78 46.77 2.34z" fill="#fcb5b1"/><path d="m864.26 917.55h52.33v68.38h-52.33z" fill="#fff"/><path d="m1534.22 765.99c-.96 8.98-3.53 22.24-10.83 36.6-11.35 22.36-27.94 35.01-36.6 40.72-12.74-6.45-31.34-17.83-48.97-37.11-12.94-14.17-16.03-13.73-21.45-24.56.47 1.45 6.95 21.74 14.39 68.89 4.65 29.43 10.02 66.38 14.55 105.29 4.44 38.19 8.08 78.27 9.44 114.98.54 14.19.72 27.87.49 40.75-80.06 2.02-199 8.04-310.26 14.73.09-3.41.18-6.88.25-10.4.76-35.13.73-75.23.19-114.19-1.35-97.93-5.97-188.62-9.72-174.93-6.19 22.63-29.38 56.12-29.38 56.12-60.32 12.24-94.34-56.12-94.34-56.12s56.87-126.97 86.77-148.62c29.91-21.65 77.68-38.98 155.02-47.24 77.33-8.24 119.41 2.99 162.91 26.82 46.58 25.52 101.16 81.93 117.54 108.27z" fill="#0cc4cb"/><path d="m1454.75 1070.8c-.77.07-1.52.41-2.26 1.07-12.4 11.2-20.14 4.91-26.14-46.09s6.77-68.61 6.77-68.61c3.34-.56 7.57-1.25 12.19-1.35 4.44 38.19 8.08 78.27 9.44 114.98z" fill="#09959a"/><path d="m1479.06 835.41s40.04 25.33 46.57 45.37-59.13 72.98-68.22 79.46c0 0-2.27-11.61-15.68-9.46 0 0-3.65.74-6.77 3.29-10.99 8.94-4.75 52.22-4.75 52.22 5.29 36.62 8.11 54.99 17.14 57.64 8.39 2.47 17.76-6.56 27.07-15.77 58.7-58 73.42-76.74 100.02-106.7 27.32-30.78 59.97-49.44 22-97.1-37.02-46.47-69.43-80.43-69.43-80.43l-47.95 71.49z" fill="#fcb5b1"/><path d="m1175.96 1118.14c-13.18-4.83-13.06-9.65-24.05-6.75-2.37.62-4.62 2.4-6.68 4.49.76-35.13.73-75.23.19-114.19 10.56 10.65 21.06 27.15 21.54 50.87.96 48.22 22.18 70.4 9 65.58z" fill="#09959a"/><path d="m1021.25 826.3s-70.46 114.95-56.71 159.64c13.75 44.68 157.59 125.12 178.21 120.31s18.56-78.36 13.06-91.42-17.18-24.06-25.43-17.18-8.25 11-8.25 11-49.83-41.36-61.69-54.29c-7.73-8.43 16.94-31.66 33.99-70.05s-73.17-57.99-73.17-57.99z" fill="#fcb5b1"/><path d="m1534.22 765.99c-.96 8.98-3.53 22.24-10.83 36.6-11.35 22.36-27.94 35.01-36.6 40.72-12.74-6.45-31.34-17.83-48.97-37.11-12.96-14.19-16.04-13.73-21.47-24.61.28.86 6.85 21.04 14.41 68.94 3 19.02 5.06 41.22 6.44 64.43l-292.56 35.82c-1.36-51.19-3.75-99.32-6.18-117.62-.53-3.96-1.06-6.52-1.58-7.42-.4-.69-.79-.39-1.18 1.02-6.19 22.63-29.38 56.12-29.38 56.12-60.32 12.24-94.34-56.12-94.34-56.12s56.87-126.97 86.77-148.62c29.91-21.65 77.68-38.98 155.02-47.24 77.33-8.24 119.41 2.99 162.91 26.82 46.58 25.52 101.16 81.93 117.54 108.27z" fill="#0cc4cb"/><path d="m1171.93 376.63s30.59-29.04 83.17-7.71c27.2 11.03 43.98 47.98 47.98 83.96s15.99 106.62 0 116.62-83.66 21.44-88.04 1.68c-5.91-26.64-27.91-50-22.91-55.66 10.33-11.71-3.55-51.46-16.17-55.93-15.99-5.66-20.62 13.88-20.62 13.88s-36.76-13.11-60.48 22.51c0 0-20.97-81.75 15.36-109.44 35.83-27.29 61.71-9.92 61.71-9.92z" fill="#0c182b"/><path d="m874.16 954.46c-.69 0-1.3-.14-1.82-.43-.53-.29-.93-.69-1.22-1.2s-.44-1.1-.44-1.75v-4.9h2.05v5.05c0 .29.06.54.19.75s.3.37.52.48.46.17.73.17.52-.05.72-.17.37-.27.49-.48.18-.46.18-.75v-5.06h2.07v4.91c0 .65-.15 1.23-.44 1.74s-.7.91-1.21 1.2-1.12.43-1.82.43z" fill="#2e61d7"/><path d="m878.94 954.34v-8.15h1.44l.62 1.67v6.49h-2.06zm5.62 0-4.76-6.05.58-2.1 4.77 6.05zm0 0-.53-1.71v-6.44h2.06v8.15z" fill="#2e61d7"/><path d="m887.55 954.34v-8.15h2.06v8.15z" fill="#2e61d7"/><path d="m891.05 954.34v-8.15h2.06v8.15zm1.63-2.92v-1.53h1.61c.2 0 .38-.04.55-.12s.3-.2.4-.36.15-.36.15-.6-.05-.44-.15-.6-.23-.29-.4-.37c-.16-.08-.35-.12-.55-.12h-1.61v-1.53h1.97c.52 0 .99.11 1.41.32s.76.51 1 .9c.25.39.37.86.37 1.41s-.12 1-.37 1.4-.58.7-1 .9c-.42.21-.89.31-1.41.31h-1.97z" fill="#2e61d7"/><path d="m902.38 954.49c-.63 0-1.21-.11-1.74-.32s-.99-.51-1.39-.9c-.39-.38-.7-.83-.93-1.35-.22-.52-.33-1.07-.33-1.67s.11-1.15.33-1.66.52-.96.92-1.34c.39-.38.85-.68 1.38-.89s1.11-.32 1.74-.32 1.21.11 1.74.32.99.51 1.38.89.7.83.91 1.35c.22.51.33 1.07.33 1.67s-.11 1.15-.33 1.67c-.22.51-.52.96-.91 1.35s-.85.69-1.37.9-1.1.32-1.72.32zm-.02-1.84c.46 0 .86-.1 1.2-.3s.6-.48.78-.84.28-.78.28-1.26c0-.35-.05-.67-.16-.97-.1-.29-.25-.54-.45-.75s-.44-.37-.71-.49c-.28-.12-.59-.17-.93-.17-.46 0-.86.1-1.2.29-.34.2-.6.47-.78.83s-.28.78-.28 1.25c0 .37.05.7.16 1s.25.55.45.76.44.37.71.48c.28.11.59.17.93.17z" fill="#2e61d7"/><path d="m910.13 954.46c-.68 0-1.27-.1-1.78-.31-.5-.21-.96-.53-1.37-.98l1.3-1.31c.28.3.59.53.91.68.32.16.69.24 1.09.24.34 0 .61-.06.8-.18s.28-.28.28-.49c0-.19-.07-.35-.21-.48s-.32-.24-.55-.33c-.23-.1-.47-.19-.75-.28s-.54-.2-.82-.32c-.27-.13-.52-.28-.75-.47-.23-.18-.41-.41-.55-.69s-.21-.62-.21-1.02c0-.52.12-.97.37-1.33s.6-.65 1.04-.85.96-.3 1.55-.3 1.13.1 1.63.3.91.48 1.23.83l-1.31 1.3c-.25-.25-.49-.43-.75-.55-.25-.12-.53-.18-.83-.18s-.51.05-.67.15-.24.24-.24.42.07.33.21.45.32.22.55.3c.23.09.47.18.75.27s.54.2.81.32.52.28.74.47c.23.19.41.43.55.72s.21.64.21 1.06c0 .81-.29 1.44-.86 1.89-.57.44-1.37.67-2.4.67z" fill="#2e61d7"/><path d="m739.63 424.06s-56.6-181.88-10.07-194.01c117.83-30.72 246.43-51.8 251.58-37.36s28.63 150.01 16.4 156.46-259 37.9-257.91 74.91z" fill="#ffe1e6"/><path d="m893.21 206.94h60.58v60.58h-60.58z" fill="none"/><path d="m926.17 237.24 15.71-15.69c.67-.82.55-2.03-.27-2.7-.71-.58-1.73-.58-2.43 0l-15.69 15.71-15.69-15.71c-.82-.67-2.03-.55-2.7.27-.58.71-.58 1.73 0 2.43l15.71 15.69-15.71 15.69c-.74.75-.74 1.95 0 2.7.75.73 1.95.73 2.7 0l15.69-15.71 15.69 15.71c.75.73 1.95.73 2.7 0 .74-.75.74-1.95 0-2.7z" fill="#e5283f"/><path d="m1163.46 486s-1.47-23.78 11.93-14.71c13.4 9.08 13.75 29.35 8.59 43.1s-19.48-17.24-20.53-28.39z" fill="#e07785"/><path d="m708.53 635.45c-28.05-14.86-63.95-10.86-65.02-10.86 6.86-3.19 17.64-5.89 33.01-5.37 13.83.48 30.06 7.51 32.01 16.23z" fill="#fff"/><path d="m550.93 451.5s10.55-31.35 49.79-42.88c0 0-49.79.8-49.79 42.88z" fill="#fff"/><path d="m538.79 437.82s10.55-31.35 49.79-42.88c0 0-49.79.8-49.79 42.88z" fill="#fff"/><path d="m771.85 585.85s1.14 37.73-9.72 63.6c0 0 21.15-26.44 9.72-63.6z" fill="#fff"/><path d="m251.08 918.9c-8.9-29.68 1.96-51.63 7.97-59.36-2.65 8.03-5.32 18.25-6.86 30.3-1.42 11.13-1.51 21-1.11 29.06z" fill="#2e61d7"/><path d="m1127.48 569.33s5.39 1.65 7.4 5.66c0 0 .24-9.87-8.56-9.65z" fill="#0e1c38"/><path d="m1374.21 367.67c-14.68 4.74-71.13-89.51-31.37-102.35s48.5 96.82 31.37 102.35z" fill="#fff"/><circle cx="1381.33" cy="393.19" fill="#fff" r="12.86"/><path d="m1387.71 632.96s48.87 9.57 57.87 30.35c0 0-7.75-33.9-57.87-30.35z" fill="#0cc4cb"/><path d="m1138.46 833.16c-.53-3.96-1.06-6.52-1.58-7.42 3.24-9.95 6.77-22.39 9.51-36.24 6.85-34.72 13.17-68.33 15.42-59.97s-4.4 40.16.64 43.59c5.01 3.41 11.9-23.98 18.33-19.48 4.68 3.27-25.51 52.77-42.32 79.52z" fill="#09959a"/><path d="m1254.51 1001.69s-11.24-23.64 20.45-38.94 50.47-27.12 57.42-45.2c0 0-28.51 50.76-47.98 57.71s-29.9 26.42-29.9 26.42z" fill="#09959a"/><path d="m455.64 899.78c-4.72-16.72-41.29-43.02-41.29-43.02 6.21 2.93 12.78 7.22 18.36 8.73 7.39 2.01 13.61.9 19.95 1.48 23.16 33.62 2.98 32.81 2.98 32.81z" fill="#224cb0"/><path d="m513.44 635.45s.06 70.33 17 92.78c20.03 26.53-22.26 89.79-22.26 89.79s17.93-55.73 8.55-71.02c-26.04-42.43-3.3-111.55-3.3-111.55z" fill="#eaeaea"/><path d="m750.84 838.91c-7.21-55.71-5.92-48-22.21-60.85s-8.73-20.14 7.63-10.71c16.37 9.43 21.94 12 19.37-1.29s48.7 10.12 12.86 21.43c-17.65 5.57-17.65 51.42-17.65 51.42z" fill="#eaeaea"/><path d="m1091.06 455.4s-5.11-100.04 80.87-78.78c0 0 34.13-23.76 73.35-8.78 53.98 20.61 51.33 76.98 51.33 76.98s-16.4 35.76-106.57 16.4c0 0-17.81-20.17-46.34-26.38-26.65-5.8-41.62 11.95-52.63 20.55z" fill="#11243f"/><path d="m877.66 268.13h-83.83c-2.31 0-4.19-1.88-4.19-4.19s1.88-4.19 4.19-4.19h71.26c2.31 0 4.19-1.88 4.19-4.19s-1.88-4.19-4.19-4.19h-71.26c-6.94 0-12.57 5.63-12.57 12.57v67.06c0 6.94 5.63 12.57 12.57 12.57h83.83c4.63 0 8.38-3.75 8.38-8.38v-58.68c0-4.63-3.75-8.38-8.38-8.38zm-18.86 41.92c-3.47 0-6.29-2.81-6.29-6.29s2.81-6.29 6.29-6.29 6.29 2.81 6.29 6.29-2.81 6.29-6.29 6.29z" fill="#e5283f"/></svg>