<svg viewBox="0 0 1728 1296" xmlns="http://www.w3.org/2000/svg"><path d="m1497.58 780.98c-3.68 269.1-100.91 382.66-398.88 417.33-52.45 6.11-111.13 9.77-176.61 11.4-7.27.18-14.63.34-22.08.46-24.34.43-49.59.6-75.77.53-26.7-.07-54.37-.4-83.04-.95-26.97-.52-52.5-1.32-76.66-2.49-29.11-1.41-56.23-3.36-81.49-5.99-171.48-17.86-257.13-67.38-295.08-196.13-56.57-191.91-88.44-485.76 22.14-666.15 185.37-302.38 656-226.66 959.51-157.61 149.07 33.91 232.84 243.11 227.96 599.6z" fill="#d8e2f8"/><path d="m973.8 258.41s-52.9-44.69-102.67-51.2-29.77 23.6-25.08 29.08c3.9 4.55 51.74 55.92 61.21 63.47 9.47 7.56 60.02 15.64 60.02 15.64l6.51-56.98z" fill="#fcb5b1"/><path d="m1233.94 433.97c-22.1 81.78-104.55 153.74-174.17 185.87-51.36 23.71-90.62-35.91-71.78-93.67 2.43-7.46 5.84-14.89 10.31-22.11 0 0 76.09-43.77 72.44-63.58-3.65-19.8-115.7-126.13-144.89-128.21.16-.66.34-1.35.54-2.08 2.22-8.29 6.77-20.91 16.46-33.81 10.42-13.87 22.17-21.93 29.39-26.13 26.08 11.31 65.11 29.28 110.81 54.64 103.78 57.6 162.37 86.57 150.89 129.08z" fill="#2e61d7"/><path d="m1098.7 1198.31c-52.45 6.11-111.13 9.77-176.61 11.4-7.27.18-14.63.34-22.08.46-10.45-.12-20.99-.26-31.65-.42-14.99-.23-29.7.18-44.12.95-26.7-.07-54.37-.4-83.04-.95-26.97-.52-52.5-1.32-76.66-2.49 2.69-33.25 4.04-82.66 2.41-119.36-.68-15.23-1.61-30.67-2.73-46.05-1.8-25.01-4.09-49.86-6.54-73.31-8.29-79.15-18.47-142.38-18.47-142.38 2.25-33.06 14.87-61.25 34.47-85.19 98.44-120.26 372.91-133.03 392.9-113.91 23.98 22.94 14.59 89.65 7.3 242.88-5.71 119.87 15.37 269.09 24.82 328.37z" fill="#2e61d7"/><path d="m902.46 1129.92c17.11-37.78 62.16-4.21 88.71-34.54s-17.77-90.21 16.62-58.13 46.75 62.73 9.2 75.56-64.91-2.14-74.04 17.11-40.5 0-40.5 0z" fill="#224cb0"/><path d="m942.39 1105.13c3.04-8.55 16.82-15.14 28.94-21.95 12.12-6.8 16.16-29.85 14.5-32.94s19.49 29.47-8.79 42.06-34.64 12.83-34.64 12.83z" fill="#224cb0"/><path d="m860.94 835.11c-6.05 6.72-12.15 13.46-18.19 20.05-30.45 33.25-59.06 62.89-68.82 68.08 0 0-2.04-8.6-6.12-22.17-8.21-27.31-24.7-74.76-49.51-112.88 1.74 1.91 54.51 87.76 60.83 123.54 0 0 64.7-53.81 81.81-83.35 0 0-1.32.47 0 6.73z" fill="#224cb0"/><path d="m987.99 526.17c2.43-7.46 5.84-14.89 10.31-22.11 0 0 76.09-43.77 72.44-63.58-3.65-19.8-115.7-126.13-144.89-128.21.16-.66.34-1.35.54-2.08 33.85 12.23 103.73 51.18 152.5 101.51 57.2 59.02-52.88 108.43-90.9 114.47z" fill="#224cb0"/><path d="m816.49 222.97c-28.58 5.88-95.64 32.66-90.08 176.51s-132.03 236.27-156.36 304.37c-24.32 68.1-27.8 96.59-27.8 96.59s66.71-56.98 209.86 13.2c143.15 70.19 240.32-6.09 301.57-25.46 24.95-7.89 21.05 18.09 21.05 18.09s100.58 8.07 40.82-117.71-76.82-181.31-136.2-195.97c-53.51-13.2-41.01-72.08-42.13-138.35s-48.11-146.21-120.74-131.27z" fill="#fff"/><path d="m828.91 254.41c-15.67.22-82.35 40.13-71.4 114.14 10.94 74.01 50.82 117.79 96.42 117.79 37.96 0 71.92-71.1 61.5-153.75-6.34-50.3-49.51-78.7-86.52-78.18z" fill="#fcb5b1"/><path d="m1091.03 613.56s-1.14-11.32-20.23-10.35-65.32.81-71.35 1.29c-4.04.32-5.91 6.83-8.09 13.44s-51.95 140.85-52.89 146.03-4.45 13.45 6.87 16.29c11.32 2.83 145.68-166.7 145.68-166.7z" fill="#0c182b"/><path d="m875.99 345.55s-3.27 25.5 4.76 28.06 18.91 1.31 22.27-1.39 7.57-29.99 2.05-32.58c0 0-20.8-.3-29.08 5.91z" fill="#fff"/><path d="m974.03 846.36c-6.85 55.16-54.15 143.12-122.4 212.75-108.5 110.69-186.3-1.88-187.42-17.26-12.83-16.4 140.55-21.92 140.55-21.92l169.04-245.06s5.74 27.19.23 71.49z" fill="#224cb0"/><path d="m802.76 343.89s-9.78 22.67.87 31.51c4.37 3.63 17.95 6.26 29.63 2.71 6.35-1.93 7.82-25.21 3.14-28.25-7.11-4.61-21.13-9.49-33.64-5.96z" fill="#fff"/><path d="m947.83 780.98h81.86c2.03 0 3.85-1.34 4.56-3.35l56.48-160.68c1.18-3.36-1.17-6.94-4.56-6.94h-79.86c-2.01 0-3.82 1.31-4.54 3.3l-58.47 160.68c-1.23 3.37 1.13 7 4.54 7z" fill="#14294c"/><ellipse cx="1026.2" cy="627.53" fill="#0c182b" rx="6.07" ry="4.85" transform="matrix(.2344635 -.97212492 .97212492 .2344635 175.58 1478.01)"/><ellipse cx="1011.97" cy="627.53" fill="#0c182b" rx="6.07" ry="4.85" transform="matrix(.2344635 -.97212492 .97212492 .2344635 164.69 1464.18)"/><ellipse cx="1020.73" cy="644.83" fill="#0c182b" rx="6.07" ry="4.85" transform="matrix(.2344635 -.97212492 .97212492 .2344635 154.57 1485.95)"/><ellipse cx="1007.79" cy="644.83" fill="#0c182b" rx="6.07" ry="4.85" transform="matrix(.2344635 -.97212492 .97212492 .2344635 144.67 1473.37)"/><path d="m927.42 765.17s16.83-14.8 21.37-32.31c7.3-28.14 7.62-36.05 13.35-35.01s-2.93 14.16 26.26 13.64 68.32-14.45 75.62-1.42-14.8 56.84-27.83 70.91-40.49 13.38-46.23 20.68c-5.73 7.3-12.51 23.45-12.51 23.45z" fill="#fcb5b1"/><path d="m991.17 804.61c-.78 3.12-6.83 18.95-17.14 41.75-35.55 78.62-121.84 240.11-217.74 248.73-34.65 3.12-65.56-19.32-92.08-53.24-12.83-16.4-24.64-35.47-35.35-55.65-46.24-87.04-72.16-194.43-72.16-194.43s10.43-79.63 93.27-60.82c8.32 1.89 16.22 5.34 23.7 10.02 17.05 10.66 31.91 27.69 44.59 47.17 0 0 .01.02.04.05 24.81 38.12 41.3 85.57 49.51 112.88 4.08 13.57 6.12 22.17 6.12 22.17 9.76-5.19 38.37-34.83 68.82-68.08 6.04-6.59 12.14-13.33 18.19-20.05 38.17-42.4 73.94-84 73.94-84 34.75 0 56.29 53.5 56.29 53.5z" fill="#2e61d7"/><path d="m787.91 320.6s17.03-3.47 31.27-1.74c14.25 1.74 18.42 11.12 18.42 11.12s-27.1-11.12-49.69-9.38z" fill="#0c182b"/><path d="m662.15 576.38c96.5 60.07 184.92 283.82 89.98 237.27-143.15-70.19-209.86-13.2-209.86-13.2s-19.58-36.85 4.75-104.95c10.79-30.21 27.09-53.54 115.13-119.11z" fill="#fff"/><g fill="#0c182b"><path d="m869.22 329.98s16.33-18.59 38.05-4.89c0 0-20.67-3.45-38.05 4.89z"/><path d="m802.76 343.89s9.13-4.65 19.42-1.91 14.21 7.88 14.21 7.88-14.22-7.79-33.64-5.96z"/><path d="m811.48 362.55c0-8 3.35-12.62 15.14-11.54 10.17.93 8.69 11.25 8.69 15.07s-2.68 13.78-13.2 12.9c-11.04-.92-10.63-10-10.63-16.43z"/><path d="m803.63 375.4s5.83 3.57 16.43 3.57 13.2-.87 13.2-.87-4.61 3.29-17.89 2c-11.1-1.08-11.73-4.71-11.73-4.71z"/><path d="m875.99 345.55s6.45-8.76 29.08-5.91c0 0-24.32 2.89-29.08 5.91z"/><path d="m889.9 347.52c10.57.77 10.33 18.35 10.6 15.53-.59 6.06-4.04 11.33-12.18 11.65s-8.95-6.06-9.4-15.26c-.42-8.6 4.54-12.39 10.97-11.93z"/><path d="m880.75 373.61s9.09 3.13 22.27-1.39c0 0-11.32 7.99-22.27 1.39z"/><path d="m888.24 426.41c-9.04 16.94-59.92.98-85.91 14.16 0 0 .53-7.23 6-14.91 6.23-8.73 18.83-18.05 44.29-18.01 24.66.03 33.94 4.69 36.41 9.96 1.4 2.98.62 6.16-.79 8.8z"/></g><path d="m586.03 240.55c-7.22-1.05-8.34-36.48 15.64-42.74 23.97-6.25 42.74 7.82 41.69 27.1-1.04 19.28-9.73 27.97-7.3 50.56 1.93 17.9 12.51 23.63 8.34 27.91-4.5 4.62-18.24.23-20.85-31.04s6.87-49.39-2.4-56.33c-7.6-5.7-18.18-3.92-21.74 2.5-4.6 8.27-2.38 23.64-13.38 22.04z" fill="#fff"/><circle cx="653.01" cy="316.23" fill="#fff" r="9.14"/><path d="m550.89 338.62c-4.77.23-9.95-22.37 4.65-29.4 14.6-7.04 28.42-.37 30.18 12.14s-2.72 19.18 1.69 33.37c3.49 11.25 11.01 13.59 8.87 16.87-2.3 3.53-11.68 2.45-17.29-17.3s-1.81-32.57-8.64-35.86c-5.6-2.7-12.16-.23-13.64 4.34-1.91 5.89 1.45 15.48-5.81 15.84z" fill="#fff"/><circle cx="603.42" cy="378.76" fill="#fff" r="5.98"/><path d="m687.23 201.1c-4.1.02-7.7-19.57 5.1-25.06s24.41.76 25.44 11.56-3.06 16.36.19 28.71c2.57 9.78 8.93 12.08 6.98 14.81-2.11 2.94-10.12 1.66-14.19-15.5s-.33-28.02-6.06-31.1c-4.7-2.53-10.43-.65-11.87 3.21-1.86 4.98.66 13.34-5.59 13.37z" fill="#fff"/><circle cx="730.8" cy="237.53" fill="#fff" r="5.14"/><path d="m707.77 415.24s-30.35-66.4 10.48-108c0 0-17.07 54.97-10.48 108z" fill="#fff"/><path d="m868.35 189.32s42.31 3.85 57.5 16.56c0 0-12.55-26.56-57.5-16.56z" fill="#fcb5b1"/><path d="m874.78 174.22s42.31 3.85 57.5 16.56c0 0-12.55-26.56-57.5-16.56z" fill="#fcb5b1"/><path d="m889.03 417.61c-38.49-12.83-65.93-1.96-80.7 8.05 6.23-8.73 18.83-18.05 44.29-18.01 24.66.03 33.94 4.69 36.41 9.96z" fill="#fff"/><path d="m991.17 507.82s-56.17 27.96-65.32 18.35c-5.94-6.24.79-18.67 0-30.7-1.35-20.6-6.91-41.82-6.91-41.82s20.27 31.37 20.27 45.62 31.68 13.31 51.96 8.55z" fill="#eaeaea"/><path d="m738.42 456.97s4.92 43.54 31.76 84.83c23.29 35.84-60.2 125.77-38.88 174.65 14.63 33.56-27.65-10.69-5.63-63.45 22.02-52.75 28.44-76.28 17.03-106.93s-12.83-68.44-4.28-89.11z" fill="#eaeaea"/><path d="m726.06 531.58c0-.86-8.79 22.57 1.19 37.54s8.79 27.56-1.19 42.77c0 0 15.21-10.69 14.26-33.5s-14.26-31.13-14.26-46.81z" fill="#eaeaea"/><path d="m1074.74 806.27s24.09-49.9 0-75.56c0 0 56.88 21.39 0 75.56z" fill="#eaeaea"/></svg>