<svg viewBox="0 0 1728 1296" xmlns="http://www.w3.org/2000/svg"><ellipse cx="519.81" cy="736.31" fill="#cecece" rx="4.99" ry="5.94"/><path d="m1671.97 649.54c.06 509.4-264.92 492.27-891.56 517.88-3.89.16-7.81.21-11.75.31-5.52.14-10.99.26-16.43.36-157.72 3-282.13-9.71-379.91-34.1-4.74-1.18-9.41-2.39-14.02-3.62-430.74-115.29-279.36-520.52-264.55-731.62 21.74-309.97 213.66-266.1 940.41-254.32 544.77 8.83 637.77 126.79 637.81 505.11z" fill="#d8e2f8"/><path d="m723.93 1032.62c2.16 48.3 11.24 100.03 18.16 135.47-159.46 3-285.24-9.71-384.1-34.1 7.1-113.65 9.9-372.31-49.9-466.82l475.74-4.57c-1.55 2.9-66.43 224.08-59.9 370.02z" fill="#2e61d7"/><path d="m357.51 884.33c31.84-5.33 61.14-10.65 81.11-14.55-7.53 3.88-19.48 9.04-37.03 14.09-13.81 3.97-29.62 5.83-43.66 6.63z" fill="#224cb0"/><path d="m504.91 408.13c-21.47 2.84-59.86 46.79-66.67 91.3s15.28 94.24 2.09 123.38c-9.95 21.99-69.64 8.9-132.25 44.36 0 0-9.13 56.7 39.57 90.21s-45.49 94.49 151.85 152.37c39.27 11.52 42.94 15.71 77.5 11s93.43-20.34 156.79 4.47c0 0 .56-58.51 35.64-143.34s28.82-116.31 28.82-116.31-66.78-44.32-183.3-42.23c0 0 10.75-55.37 4.99-99.14s-47.65-124.97-115.03-116.07z" fill="#fff"/><path d="m928.6 721.81s-26.15 186.1-97 262.05c0 0 84.48-156.07 97-262.05z" fill="#fff"/><path d="m197.59 640.88s-20.46 144.43 43.78 293.58c0 0-91.82-149.85-43.78-293.58z" fill="#fff"/><rect fill="#14294c" height="128.29" rx="4.76" width="76.63" x="506.22" y="716.44"/><path d="m446.53 801.63c1.31-.26 13.35-1.05 18.59-4.19s.79-12.83 53.67-12.83c0 0 18.22 36.12 8.9 65.19-6.55 20.42-114.67-2.36-114.67-2.36l33.51-45.82z" fill="#ffb0a9"/><path d="m580 833c28.96 9.84 40.44 3.08 75.65 8.93 35.21 5.84 19.41-53.84 19.41-53.84s-17.15-6.65-39.24-5.94c0 0-15.76-14.94-36.93-17.77-6.04-.81-19.78-4.32-23.5 8.27-6.32 21.39-16.11 53.33 4.6 60.36z" fill="#ffb0a9"/><path d="m461.98 864.9c-4.2 1.03-12.36 2.74-23.36 4.88-27.74 5.41-73.5 13.59-119.03 20.7l-.09.02c-51.93 8.11-103.54 14.85-127.71 14.54-53.75-.69-80.98-26.53-14.66-119.73 66.33-93.2 130.54-114.15 130.54-114.15s62.36 62.48 48.89 93.56c-.82 1.89-1.81 3.79-2.93 5.68-12.56 21.14-42.01 41.38-42.93 42.01 8.54-2.43 27.49-4.75 48.95-6.75 42.85-4 95.7-6.73 95.7-6.73 21.64 8.72 6.63 65.97 6.63 65.97z" fill="#2e61d7"/><path d="m959.24 861.58c-32.46 89.02-267.86-11.64-310.5-16.75 0 0 24.08-41.12 9.42-61.01 0 0 52.3 8.79 99.24 16.74h.01c25.21 4.27 48.86 8.29 62.03 10.58 0 0-33.92-21.48-56.74-44.1-2.54-2.51-4.95-5.04-7.15-7.56-21.99-25.13 42.7-93.91 42.7-93.91s180.6 142.25 160.99 196.01z" fill="#2e61d7"/><path d="m757.41 800.56c25.21 4.27 48.86 8.29 62.03 10.58 0 0-33.92-21.48-56.74-44.1 20.15 11.19 91.76 50.4 106.04 51.01 16.66.71-38.28 9.23-111.33-17.49z" fill="#224cb0"/><path d="m799.85 740.7c-10.77 26.99-26.17 45.25-36.05 55.35-17.52-.36-60.3-13.99-77.79-15.34-25.63-1.98-95.64-96.11-153.08-96.11-84.21 0-29.81 95.64-82.79 97.28-28.8.9-57.6 1.57-86.41 1.65-1.47-9.85-5.23-18.68-16.07-26.15-48.7-33.51-39.57-90.21-39.57-90.21 62.61-35.45 122.3-22.36 132.25-44.35 13.18-29.15-5.38-61.04-6.9-106.04-2.14-63.01 50-105.81 71.47-108.65 67.38-8.9 109.27 72.3 115.03 116.07 2.89 21.96 1.62 46.83-.35 66.17 0 0 0 0-.01.03-1.96 19.2-4.63 32.94-4.63 32.94 16.94-.42 32.52-.11 46.84.78 117.05 7.17 150.04 52.47 150.04 52.47.14 14.06-1.38 37.55-11.98 64.11z" fill="#fff"/><path d="m504.91 441.12c-22.47 4.28-62.48 31.69-58.29 82.52s28.62 117.16 81.68 117.16 72.75-91.4 56.55-147.04c-11.87-40.76-57.96-56.82-79.95-52.63z" fill="#ffb0a9"/><path d="m528.3 504.65s9.08-14.49 32.46-9.33c0 0-17.72 1.22-32.46 9.33z" fill="#0c182b"/><path d="m502.47 563.4c8.52-.36 15.64 4.16 7.32 6.18-2.7.66-13.15 1.9-13.88 0-2-5.24 3.55-6.06 6.55-6.18z" fill="#e07785"/><path d="m468.1 531.57c5.5 3.74 12.91 6.08 23.81 3.02 10.91-3.05 0 0 0 0s7.59-4.8 4.71-17.8c0 0-17.35-9.88-28.08-2.42-2.82 1.96-5.38 13.84-.45 17.2z" fill="#fff"/><path d="m465.47 491.65s15.36-7.85 30.63 6.37c0 0-12.22-6.37-30.63-6.37z" fill="#0c182b"/><path d="m507.88 536.78s-15.36 28.62-8.9 31.76 8.55-1.92 13.44-.7c0 0-1.44-2.36-9.78-1.82-5.41.35 5.24-29.24 5.24-29.24z" fill="#0c182b"/><path d="m507.71 588c10.01-2.66 11.26-7.51 27.4-4.71 0 0-12.48 4.34-23.96 6.41-8.22 1.48-19.24.04-19.24.04s7.24.52 15.8-1.75z" fill="#0c182b"/><path d="m468.54 514.37s4.69-4.79 15.95-3.74 12.13 6.16 12.13 6.16-16.62-5.62-28.08-2.42z" fill="#0c182b"/><path d="m1605.33 445.79c0 81.16-30.38 155.22-80.37 211.45-21.48 24.16-46.58 45.02-74.45 61.72-19.2 11.53-39.7 21.07-61.25 28.37-32.08 10.88-66.47 16.77-102.23 16.77-48.9 0-95.21-11.02-136.59-30.72-82.57-39.28-145.55-113.08-170.28-202.76-7.44-27.01-11.42-55.45-11.42-84.82 0-7.52.26-14.97.78-22.37 11.47-165.36 149.23-295.95 317.52-295.95s318.31 142.52 318.31 318.31z" fill="#e5283f"/><path d="m534.01 516.78s-2.43 16.7 2.14 18.61 17.54 1.16 23.7-2.81c4.36-2.8 3.01-19.51-1.84-20.01-6-.61-17.02-1.38-24 4.2z" fill="#fff"/><path d="m477.68 520.28c-.52 5.63-.33 12.56 8.82 13.27 9.14.7 10.88-8.78 9.8-13.85s-7.18-6.93-11.43-6.93-6.64 1.64-7.18 7.51z" fill="#0c182b"/><path d="m540.46 520.97c-.53 6.27.34 15.32 9.58 13.48 10.35-2.05 10.46-11.1 9.35-16.76s-7.24-5.11-11.58-5.11-6.79 1.83-7.35 8.38z" fill="#0c182b"/><path d="m1301.86 384.5s54.46-58.03 156.39-59.21 178.73 51.88 173.84 136.36-53.06 158.48-138.23 106.12-231.09-80.29-191.99-183.27z" fill="#0c182b"/><path d="m468.1 531.57s10.22 6.35 23.81 3.02c0 0-13.66 6.42-23.81-3.02z" fill="#0c182b"/><path d="m534.01 516.78s6.33-7.47 24-4.2c0 0-16.57 1.05-24 4.2z" fill="#0c182b"/><path d="m1238.06 366.05s8.64 24.56 9.16 54.93 62.83-2.09 62.83-2.09-7.56-36.04 4.6-61.74-76.59 8.9-76.59 8.9z" fill="#ffb0a9"/><path d="m536.15 535.4s11.05 3.3 23.7-2.81c0 0-11.76 10.05-23.7 2.81z" fill="#0c182b"/><path d="m311.29 368.38c98.01-5.01 109.99-4.45 114 8.02 0 0 5.03-125.95-9.22-138.87-14.25-12.91-167.29-14.41-182.22.52-15.71 15.71-11.39 35.48-12.04 68.07-.93 46.66-3.67 67.02 89.48 62.26z" fill="#fff"/><path d="m1256.9 145.44c-38.22 6.81-82.47 26.44-70.8 146.18 8.51 87.31 95.93 87.87 95.93 87.87s82.53-25.17 70.69-142.42c-11-108.91-95.82-91.63-95.82-91.63z" fill="#14294c"/><path d="m1190.85 248.01c-.97 9.38 2.09 29.67 20.94 29.67s27.23-13.96 26.18-27.58c-1.05-13.61-12.22-24.78-26.18-24.44s-19.9 12.22-20.94 22.34z" fill="#ffb0a9"/><path d="m1243.91 246.62c-1.76 13.22 3.49 32.46 20.94 32.81s31.42-9.43 28.97-32.81-19.9-22.01-28.97-20.95-18.85 5.24-20.94 20.95z" fill="#ffb0a9"/><path d="m1197.06 243.99s-1.95 16.81 3.95 19.57 10.75.82 14.52-1.09c0 0 7.81-4.34 3.85-19.29 0 0-9.87-4.51-22.32.8z" fill="#fff"/><path d="m1250.7 235.55s7.88-9.74 22.43-7.78 13.93 4.8 13.93 4.8-26.95-4.54-36.36 2.98z" fill="#0c182b"/><path d="m1201 230.57s8.11-5.49 17.23-1.34 9.53 6.13 9.53 6.13-17.75-7.07-26.76-4.8z" fill="#0c182b"/><path d="m1197.39 250.17c-.96 3.66-.18 14 7.23 14.32s12.6-6.46 9.73-13.28c-2.86-6.82-14.87-9.05-16.96-1.05z" fill="#0c182b"/><path d="m1252.82 243.99s-7.23 11.7 0 20.51c0 0 8.09 5.29 21.58.9 0 0 7.63-7.54-.7-21.41 0 0-14.49-3.58-20.88 0z" fill="#fff"/><path d="m1197.06 243.99s11.6-6.85 22.32-.8c-.15-.61-15.22-2.12-22.32.8z" fill="#0c182b"/><path d="m1201.01 263.56s6.5 2.3 14.52-1.09c0 0-7.55 5.66-14.52 1.09z" fill="#0c182b"/><path d="m1252.82 243.99s7.59-5.67 20.88 0c0 0-14.89-2.6-20.88 0z" fill="#0c182b"/><path d="m1251.22 253.77c-.97 5.12.95 13.07 10.12 13.17s11.79-10.6 8.33-16.44c-5.37-9.06-16.86-5.06-18.44 3.27z" fill="#0c182b"/><path d="m1252.82 264.5s11.09 4.7 21.58.9c0 0-10.79 5.99-21.58-.9z" fill="#0c182b"/><path d="m1235.97 276.29s-17.63 27.23-11.26 29.93c6.37 2.71 15.62 1.4 15.62 1.4s-3.57-2.27-8.5-2.62-5.37-2.09-3.63-6.89 7.77-21.82 7.77-21.82z" fill="#0c182b"/><path d="m1156.66 400.28s8.88 2.03 19.35-4.78 21.99-25.66 45.38-21.29c23.39 4.36 33.69 12.85 33.69 12.85s-13.24 63.59-49.21 64.82-60.93 45.9-75.24 17.63c-14.31-28.28 26.03-69.23 26.03-69.23z" fill="#ffb0a9"/><path d="m1217.64 331.7c0-6.41 16.32-24.48 53.58-21.34s24.96 24.09 19.59 25.66-73.16 22.65-73.18-4.32z" fill="#ffb0a9"/><path d="m1233.35 331.7s12.39-14.58 37.87-12.83c0 0-31.59 8.51-37.87 12.83z" fill="#0c182b"/><path d="m1519.55 659.67c-20.99 23.61-45.53 44-72.76 60.32-.87-4.82-2.04-9.9-3.56-15.31-25.25-90.33-43.64-133.42-43.64-133.42-19.33 58.78-15.82 138.68-12.66 176.45-31.35 10.64-64.96 16.39-99.91 16.39-47.79 0-93.05-10.77-133.49-30.03 13.43-135.77 1.16-148.15 1.16-148.15s-25.97-11.52-136.28-40.15c-11.74-3.04-22.12-6.35-31.29-9.86-76.99-29.4-67.81-72.51-46.91-89.98 5.22-4.36 18.7-9.47 36.51-14.78 61.92-18.47 184.46-40.36 184.46-40.36s22.54 9.57 29.52 31.56-37.9 41.37-37.9 41.37 65.64-30.01 76.62-42.94c11-12.91-2.97-36.3-2.97-36.3 41.35 19.64 99.37.51 100.86.02-8.01 5.3-5.22 35.24-5.22 35.24s23.05-5.58 73.3 20.6c50.27 26.18 61.38 18.32 100.54 121.2 11.96 31.41 19.24 65.72 23.61 98.12z" fill="#14294c"/><path d="m285.23 336.85.09-4.54-3.4 2.65-1.95-3.78 4.07-1.28-3.4-2.42 3-3.03 2.33 3.49 1.25-4.19 3.78 1.98-2.62 3.52 4.39-.09-.7 4.22-4.07-1.51 1.46 4.25-4.22.73z" fill="#0c182b"/><path d="m299.43 336.85.09-4.54-3.4 2.65-1.95-3.78 4.07-1.28-3.4-2.42 3-3.03 2.33 3.49 1.25-4.19 3.78 1.98-2.62 3.52 4.39-.09-.7 4.22-4.07-1.51 1.46 4.25-4.22.73z" fill="#0c182b"/><path d="m313.63 336.85.09-4.54-3.4 2.65-1.95-3.78 4.07-1.28-3.4-2.42 3-3.03 2.33 3.49 1.25-4.19 3.78 1.98-2.62 3.52 4.39-.09-.7 4.22-4.07-1.51 1.46 4.25-4.22.73z" fill="#0c182b"/><path d="m327.83 336.85.09-4.54-3.4 2.65-1.95-3.78 4.07-1.28-3.4-2.42 3-3.03 2.33 3.49 1.25-4.19 3.78 1.98-2.62 3.52 4.39-.09-.7 4.22-4.07-1.51 1.46 4.25-4.22.73z" fill="#0c182b"/><path d="m342.03 336.85.09-4.54-3.4 2.65-1.95-3.78 4.07-1.28-3.4-2.42 3-3.03 2.33 3.49 1.25-4.19 3.78 1.98-2.62 3.52 4.39-.09-.7 4.22-4.07-1.51 1.46 4.25-4.22.73z" fill="#0c182b"/><path d="m356.23 336.85.09-4.54-3.4 2.65-1.95-3.78 4.07-1.28-3.4-2.42 3-3.03 2.33 3.49 1.25-4.19 3.78 1.98-2.62 3.52 4.39-.09-.7 4.22-4.07-1.51 1.46 4.25-4.22.73z" fill="#0c182b"/><path d="m288.42 245.04h70.88v70.88h-70.88z" fill="none"/><g fill="#2e61d7"><circle cx="323.86" cy="283.8" r="3.32"/><path d="m346.01 267.19h-9.97v-7.75c0-6.73-5.45-12.18-12.18-12.18s-12.18 5.45-12.18 12.18v7.75h-9.97c-2.45 0-4.43 1.98-4.43 4.43v31.01c0 2.45 1.98 4.43 4.43 4.43h44.3c2.45 0 4.43-1.98 4.43-4.43v-31.01c0-2.45-1.98-4.43-4.43-4.43zm-19.94 24.03v4.76c0 1.22-.99 2.22-2.22 2.22s-2.22-.99-2.22-2.22v-4.76c-4.1-1.22-6.44-5.54-5.21-9.64 1.22-4.1 5.54-6.44 9.64-5.21 4.1 1.22 6.44 5.54 5.21 9.64-.75 2.51-2.71 4.47-5.21 5.21zm5.54-24.03h-15.51v-7.75c0-4.28 3.47-7.75 7.75-7.75s7.75 3.47 7.75 7.75v7.75z"/><path d="m863.96 583.94c4.8-.17 12.2-.74 20.97-2.83 13.82-3.29 16.47-6.87 25.69-6.8 7.86.05 9.84 2.68 22.78 5.95 9.77 2.47 17.97 3.34 23.24 3.68.61 36.12-3.06 54.85-11.62 67.03-6.96 9.9-27.78 25.63-34.72 25.63-7.79 0-28.87-15.75-35.85-26.6-17.38-27.03-10.49-66.06-10.49-66.06z" opacity=".24"/><path d="m775.99 1018.36c4.8-.17 12.2-.74 20.97-2.83 13.82-3.29 16.47-6.87 25.69-6.8 7.86.05 9.84 2.68 22.78 5.95 9.77 2.47 17.97 3.34 23.24 3.68.61 36.12-3.06 54.85-11.62 67.03-6.96 9.9-27.78 25.63-34.72 25.63-7.79 0-28.87-15.75-35.85-26.6-17.38-27.03-10.49-66.06-10.49-66.06z" opacity=".24"/><path d="m577.34 321.72c4.8-.17 12.2-.74 20.97-2.83 13.82-3.29 16.47-6.87 25.69-6.8 7.86.05 9.84 2.68 22.78 5.95 9.77 2.47 17.97 3.34 23.24 3.68.61 36.12-3.06 54.85-11.62 67.03-6.96 9.9-27.78 25.63-34.72 25.63-7.79 0-28.87-15.75-35.85-26.6-17.38-27.03-10.49-66.06-10.49-66.06z" opacity=".24"/><path d="m197.48 495.49c4.8-.17 12.2-.74 20.97-2.83 13.82-3.29 16.47-6.87 25.69-6.8 7.86.05 9.84 2.68 22.78 5.95 9.77 2.47 17.97 3.34 23.24 3.68.61 36.12-3.06 54.85-11.62 67.03-6.96 9.9-27.78 25.63-34.72 25.63-7.79 0-28.87-15.75-35.85-26.6-17.38-27.03-10.49-66.06-10.49-66.06z" opacity=".24"/><path d="m242.72 958.37c4.8-.17 12.2-.74 20.97-2.83 13.82-3.29 16.47-6.87 25.69-6.8 7.86.05 9.84 2.68 22.78 5.95 9.77 2.47 17.97 3.34 23.24 3.68.61 36.12-3.06 54.85-11.62 67.03-6.96 9.9-27.78 25.63-34.72 25.63-7.79 0-28.87-15.75-35.85-26.6-17.38-27.03-10.49-66.06-10.49-66.06z" opacity=".24"/></g><path d="m301.97 475.04s70.64-107.09 249.35-107.09c0 0-168.24 20.9-249.35 107.09z" fill="#fff"/><path d="m703.53 376.4s112.05 31.06 167.75 179.71c0 0-63.47-135.54-167.75-179.71z" fill="#fff"/><path d="m359.65 805.66c-7.91 2.03-15.58 4.21-22.21 6.45-30.05 10.14-71.77 12.83-53.71 5.23 13.64-5.75 51.97-33.65 69.9-46.94-12.76 21.48-42.95 42.02-42.95 42.02 8.53-2.44 27.49-4.76 48.97-6.76z" fill="#224cb0"/><ellipse cx="519.04" cy="734.53" fill="#0c182b" rx="4.17" ry="4.58"/><ellipse cx="519.04" cy="746.23" fill="#0c182b" rx="4.17" ry="4.58"/><ellipse cx="530.55" cy="734.53" fill="#0c182b" rx="4.17" ry="4.58"/><ellipse cx="530.55" cy="746.23" fill="#0c182b" rx="4.17" ry="4.58"/><path d="m661.79 624.12c-.11.14-1.61 1.57-22.33 3.59-21.87 2.14-41.35 29.94-38.97 19.49 2.33-10.3 18.58-55.39 19.09-56.8-1.96 19.2-4.63 32.94-4.63 32.94 16.94-.42 32.52-.11 46.84.78z" fill="#eaeaea"/><path d="m648.74 687.6c17.09 8.55 52.74 61.31 91.94 69.15 39.21 7.84 39.46 19.87 39.46 19.87s-24.49-12.1-60.13-9.57c-17.33 1.23-35.6-31.01-48.83-50.6-13.98-20.7-22.44-28.85-22.44-28.85z" fill="#eaeaea"/><path d="m646.23 692.76s16.57 15.15 25.31 35.29 11.94 20.67 11.94 20.67-15.15 3.16-20.85-16.62-8.2-23.66-16.4-39.34z" fill="#eaeaea"/><path d="m648.74 1106.76c-39.23-44.91-43.81-62.73-102.73-74.14s-58.97-83.89-58.97-83.89 32.69 69.64 80.43 73.2 81.26 84.83 81.26 84.83z" fill="#224cb0"/><path d="m553.05 981.06s22.25 12.12 26.05 24.48c2.37 7.72 17.55 3.46 13.78-3.33-10.03-18.06-39.83-21.15-39.83-21.15z" fill="#224cb0"/><path d="m359.65 759.6c3.8-10.83 37.26-33.5 38.41-52.75 0 0-2.17 20.67 3.05 25.19 5.23 4.51 11.69-10.22 11.91-1.66s-4.78 15.68-24.26 20.43-30.42 12.51-29.11 8.79z" fill="#eaeaea"/><path d="m1169.87 238.3s-6.12-49.28 28.22-73.78c0 0-27.29 26.76-28.22 73.78z" fill="#fff" opacity=".3"/></svg>