<svg viewBox="0 0 1728 1296" xmlns="http://www.w3.org/2000/svg"><path d="m1620.76 1124.43c-8.56 26.18-23.3 44.36-45.14 56.51-84.6 47.16-275.71 3.88-625.93-14.55-18.15-.96-35.46-1.81-51.98-2.57-38.63-1.77-73.23-3.12-104.43-4.16-29.17-.96-55.38-1.65-79.2-2.13-1.21-.02-2.39-.04-3.58-.07-7.12-.12-14.02-.23-20.7-.34-7.37-.11-14.51-.19-21.41-.25-130.57-1.28-180.85 4.27-286.63.18-22.47-.89-47.44-2.18-76.2-4.06-1.33-.09-2.64-.18-3.92-.27-.07 0-.14 0-.19-.02-2.39-.16-4.71-.32-6.95-.48-2.46-.16-4.82-.34-7.09-.5-16.25-1.15-31.37-3.4-45.42-6.66-204.44-47.37-184.2-309.23-184.34-535.43-.02-25.4 19.09-226.06 118.42-314.81 86.02-76.82 492.86-90.63 724.68-72.46 20.79 1.63 40.16 3.51 57.77 5.64 201.97 24.3 485.13 22.7 620.44 132.84 8.08 6.57 15.63 13.56 22.61 20.96 116.41 123.54 59.81 618.38 19.19 742.61z" fill="#d8e2f8"/><path d="m793.28 1159.66c-29.17-.96-55.38-1.65-79.2-2.13-1.21-.02-2.39-.04-3.58-.07l-41.52-201.92c-.14-.66-.27-1.2-.35-1.63-.14-.71-.23-1.08-.23-1.08v206c-8.84 22.4-23.45 28.07-38.33 28.99-53.93 3.3-103.57-18.98-159.64-23.04-33.8-2.45-88.68-7.28-88.66-7.73-22.47-.89-47.44-2.18-76.2-4.06-1.33-.09-2.64-.18-3.92-.27-.07 0-.14 0-.19-.02-2.39-.16-4.71-.32-6.95-.48-2.46-.16-4.82-.34-7.09-.5-16.25-1.15-31.37-3.4-45.42-6.66-1.26-18.54-6.95-103.83-7.34-129.07-.25-15.74-2.09-30.77-4.86-44.73-10.6-53.48-34.96-91.57-37.34-95.2-.12-.2-.19-.28-.19-.28s0-.02.02-.07c.02-.04.02-.07.05-.12.02-.05.04-.11.07-.18.46-.99 1.84-3.93 4.09-8.12 3.24-6.06 8.35-14.76 15.15-24.05 13.68-18.63 34.31-39.57 60.93-46.08 30.76-7.51 190.4 19.44 313.13 42.2 36.54 6.77 69.81 13.17 95.41 18.18 31.72 6.18 91.85 5.16 91.85 5.16 5.83 19.88 11.91 209.06 20.31 296.95z" fill="#2e61d7"/><path d="m309.61 1153.28c2.06.14 4.16.28 6.34.44-2.16-.14-4.29-.3-6.34-.44z" fill="#224cb0"/><path d="m315.96 1153.73c2.89.19 5.88.41 8.97.64-3.08-.21-6.08-.43-8.97-.64z" fill="#224cb0"/><path d="m590.31 944.61v.02c-71.76 80.74-82.9 76.82-176.08 137.08-26.72 17.26-31.85 47.78-32.47 75.35-22.47-.89-47.44-2.18-76.2-4.06-1.33-.09-2.64-.18-3.92-.27-.07 0-.14 0-.19-.02-2.39-.16-4.71-.32-6.95-.48-2.46-.16-4.82-.34-7.09-.5-16.25-1.15-31.37-3.4-45.42-6.66-1.26-18.54-6.95-103.83-7.34-129.07-.25-15.74-2.09-30.77-4.86-44.73-10.6-53.48-34.96-91.57-37.34-95.2-.12-.2-.19-.28-.19-.28s0-.02.02-.07c.02-.04.02-.07.05-.12.02-.05.04-.11.07-.18.37-1.06 1.67-4.22 4.09-8.12 3.24-6.06 8.35-14.76 15.15-24.05 7.9-.39 16.8-.71 26.48-.92 39.57-.9 92.35-.16 145.09 4.13 59.23 4.78 118.38 14.02 158.77 30.36 38.3 15.47 59.72 37.3 48.33 67.79z" fill="#224cb0"/><path d="m482.36 371.21s-79.72 15.27-98.52 95.59 12.51 177.72-28.76 205.58c-46.46 31.36-142.32 70.12-162.82 203.41 0 0 16.76-52.26 100.5-11.25s185.97 125.06 284.38 120.62c88.93-4.01 157.68-93.24 185.58-89.8 10.25 1.26 17.25 17.26 17.25 17.26 15.37-.95-2.07-122.05-70.05-186.46-23.36-22.13-72.66-34.39-94.58-47.97-55.73-34.53 18.36-128.62-34.98-247.11-26.95-59.88-97.99-59.88-97.99-59.88z" fill="#fff"/><path d="m495.02 400.6s-71.35 26.58-78.03 116.04c-10.21 136.66 103.81 143.95 103.81 143.95s88.77-21.32 66.72-172.65c-11.45-78.58-92.5-87.33-92.5-87.33z" fill="#ffbdbb"/><path d="m659.55 772.5s19.16-4.53 48.85 51.9c0 0-46.53 1.47-46.95 0s-1.89-51.9-1.89-51.9z" fill="#224cb0"/><path d="m564.23 570.75s-.53 6.03-3.72 13.2c-4.82 10.74-15.63 24.05-39.71 23.53-24.7-.53-35.46-11.71-40.05-20.26-2.91-5.33-3.38-9.64-3.38-9.64s68.92 15.67 86.87-6.84z" fill="#0c182b"/><path d="m475.08 495.56s-7.3 15.46 5.41 21.08 24.65 2.85 24.65 2.85 7.76-4.26 4.33-19.6c0 0-18.93-9.01-34.39-4.33z" fill="#fff"/><path d="m450.33 924.26c0-54 51.13-102.14 90.83-99.21 0 0-68.16 29.89-68.16 74.27 0 25.83-22.66 24.94-22.66 24.94z" fill="#eaeaea"/><path d="m553.4 500.69s-4.9 18.04 4.5 20.08 17.39 1.03 19.24.28c0 0 5.93-7.29 1.68-20.36 0 0-12.7-4.3-25.41 0z" fill="#fff"/><g fill="#0c182b"><path d="m553.4 500.69s7.64-3.67 16.18-3.67c5 0 9.23 3.67 9.23 3.67s-8.61-1.99-25.41 0z"/><path d="m475.08 495.56s5.57-4.82 19.18-2.42c14.9 2.63 15.21 6.75 15.21 6.75-4.21-1.25-25.52-5.48-34.39-4.33z"/><path d="m495.09 520.18c11.25 0 12.39-7.97 12.25-14.53s-3.84-10.25-10.82-11.11c-6.98-.85-11.4 2.42-11.54 11.25s4.27 14.38 10.11 14.38z"/><path d="m480.49 516.64s6.56 2.51 13.46 2.82 11.19.03 11.19.03-5.27 1.42-12.32 1.57-12.32-4.41-12.32-4.41z"/><path d="m560.46 508.19c-.26 6.36-.76 13.67 8.26 13.67s10.35-5.14 10.06-12.72c-.28-7.6-1.9-10.35-8.45-10.33-5.51.02-9.49-.02-9.87 9.38z"/><path d="m557.9 520.77s6.95 1.27 13.29.71c6.33-.56 5.95-.42 5.95-.42s-4.03 1.83-9.49 1.77c-5.05-.06-9.74-2.05-9.74-2.05z"/><path d="m467.75 474.17s18.03-4.41 32.1-.57c14.08 3.84 18.03 10.4 18.03 10.4s-30.9-9.97-50.13-9.83z"/><path d="m541.16 484.03s8.08-10.76 22.44-12.48 19.15 0 19.15 0-34.7 7.75-41.58 12.48z"/><path d="m712.16 730.71s48.68-87.08 53.37-88.31 24.48 13.61 24.48 13.61l-5.65 8.42-15.59-10.21-8.66 13.89 16.5 9.31-7.38 10.48-15.13-8.79-17.83 31.77s12.29 6.49 8.2 10.96-32.31 8.85-32.31 8.85z"/></g><path d="m765.94 778h-.02c-4.32 3.24-9.55 6.63-12.49 9.04-4.11 3.33-10.07 6.95-16.69 9.3-3.33 1.2-10.67 3.37-18.18 8.33-2.92 1.91-5.88 4.27-8.65 7.16-8.22 8.58-23.96 25.84-23.96 25.84s-49.94-26.95-36.91-52.51c0 0 24.47-18.29 38.62-44.32 12.52-23.03 34.19-22.4 45.95-22.03 11.77.39 30.36-3.47 33.1 1.79 1.68 3.23.58 7.37-1.26 10.12-.89 1.31-1.95 2.3-2.96 2.73 0 0 7.96 2.59 8.22 7.37.14 2.84-1.33 5.21-3.14 7.04-1.9 1.91-4.15 3.21-5.25 3.77l-.67.34s9.39-.25 9.96 4.43c.27 2.14-.92 4.36-2.29 6.13v.02c-1.58 2.07-3.38 3.53-3.38 3.53s4.02.37 6.66 3.37c1.52 1.75-2.02 5.07-6.66 8.56z" fill="#ffbdbb"/><path d="m708.39 824.4s-9.17 14.45-27.28 33.16c-21.55 22.28-53.64 54.18-90.81 87.05v.02c-35.05 31.01-74.61 62.89-114.09 88.38-114.13 73.67-277.22-147.96-283.76-156.93-.12-.2-.19-.28-.19-.28s0-.02.02-.07c.18-.5 1.45-3.97 4.22-8.42 4.2-6.84 14.27-15.82 41.63-24.97 131.7-44.05 165.01 82.42 201.81 76.39 28.58-4.68 63.43-36.09 101.22-62.75 81.18-57.25 118.39-83.49 118.39-83.49s.26 24.99 10.52 36.95c10.24 11.96 38.32 14.95 38.32 14.95z" fill="#2e61d7"/><path d="m1575.62 1180.95c-84.6 47.16-275.71 3.88-625.93-14.55-18.15-.96-35.46-1.81-51.98-2.57-9.41-221.38-12.12-452.88-6.13-693.58 2.07-83.91 5.16-166.55 9.16-247.87 1.17-23.98 2.43-47.83 3.76-71.58 26.71-43.4 43.06-43.21 45.97-43.13 87.3-8.47 183.47-13.91 287.27-13.89 103.41.02 199.23 5.44 286.26 13.89 12.71 0 24.19 4.84 32.52 12.64 12.71 11.93 13.36 27.31 13.47 30.5 3.62 69.17 6.63 139.19 8.97 210.06.9 27.08 1.7 54.28 2.41 81.59 6.57 255.8 4 502.25-5.74 738.5z" fill="#0cc4cb"/><path d="m1017.27 758.92c-4.72-.29-9.57-.37-13.76-.45-15.42-.32-26.98.37-33.45 3.66-2.11 1.07-3.18 6.48-3.74 12.05.81-9.11 2.3-12.87 5.04-13.4 0 0 11.29-5.77 45.91-1.86z" fill="#fff"/><path d="m1036.75 763.83c-1.38-1.4-3.72-2.42-6.62-3.16 1.82.28 3.69.59 5.62.93.36.7.69 1.44 1 2.23z" fill="#fff"/><path d="m1041.94 938.29c-.75.84-3.21 1.55-6.79 2.12 2.58-.41 5.2-1.98 6.76-4.14.02 1.32.03 2.02.03 2.02z" fill="#fff"/><path d="m1129.87 428.18 98.64-67.01h11.15l-94.28 67.01z" fill="#0c182b"/><path d="m1250.81 361.17h-11.15l83.21 73.84h15.83z" fill="#0c182b"/><path d="m1039.87 762.35c-.42-1.37-.98-2.23-1.5-2.59-1.05-.72-2.83-1.42-5.16-2.06-17.93-4.93-68.38-6.59-69.16 6.58 0 0-11.64 175.79 5.81 179.67 16.11 3.58 61.97 3.85 73.11-2.24.93-.5 1.61-1.05 2.02-1.64.4-.58.86-2.06 1.07-4.33 2.39-26.17-.04-153.25-6.19-173.39zm3.44 170.18c-.08 1.35-.6 2.63-1.4 3.74-1.56 2.16-4.18 3.73-6.76 4.14-.76.12-1.58.24-2.44.35-.26.03-.54.07-.82.1-.29.03-.58.07-.88.1-.5.06-1.01.12-1.54.17-.11 0-.21.02-.32.03-.31.03-.64.06-.96.09-.98.09-1.99.17-3.03.25-.5.04-1.01.08-1.53.11-.26.02-.52.03-.78.05-.66.04-1.33.08-2.01.12-.12.01-.24.01-.37.02-.54.03-1.08.06-1.63.09-1.6.08-3.24.14-4.91.2-.21.01-.43.01-.65.02-1.76.06-3.54.1-5.33.13-.37.01-.74.02-1.1.02h-.11c-.81.02-1.62.03-2.42.03-16.18.15-31.99-.68-34.74-2.4-5.7-3.56-4.45-135.27-3.92-153.44.01-.46.03-1.03.05-1.69.06-2.38.19-5.88.51-9.44 0-.05.01-.1.01-.16.03-.32.06-.65.09-.98.56-5.57 1.63-10.98 3.74-12.05 6.47-3.29 18.03-3.98 33.45-3.66 4.19.08 9.04.16 13.76.45.02.01.04.01.05 0 4.65.3 9.17.81 12.81 1.75 2.9.74 5.24 1.76 6.62 3.16.76.77 1.23 1.65 1.36 2.66.93 7.32 2.78 12.12 4.68 69.86 2.23 68.08 1.41 81.03.52 96.18z" fill="#cecece"/><path d="m1043.31 932.53c-.08 1.35-.6 2.63-1.4 3.74-1.56 2.16-4.18 3.73-6.76 4.14-.76.12-1.58.24-2.44.35-.26.03-.54.07-.82.1-.29.03-.58.07-.88.1-.5.06-1.02.11-1.54.17-.11 0-.21.02-.32.03-.31.03-.64.06-.96.09-.98.09-1.99.17-3.03.25-.51.04-1.01.07-1.53.11-.26.02-.52.03-.78.05-.66.04-1.33.08-2.01.12-.12.01-.24.01-.37.02-.54.03-1.08.06-1.63.09-1.6.08-3.24.14-4.91.2-.21.01-.43.01-.65.02-1.76.06-3.54.1-5.33.13-.37.01-.74.02-1.1.02h-.11c-.81.02-1.62.03-2.42.03-16.18.15-31.99-.68-34.74-2.4-5.7-3.56-4.45-135.27-3.92-153.44.01-.46.03-1.03.05-1.69.13-3.61.29-6.74.51-9.44 0-.05.01-.1.01-.16.03-.32.06-.65.09-.98.56-5.57 1.63-10.98 3.74-12.05 6.47-3.29 18.03-3.98 33.45-3.66 4.19.08 9.04.16 13.76.45.02.01.04.01.05 0 3.96.45 8.22 1.02 12.81 1.75 2.9.74 5.24 1.76 6.62 3.16.76.77 1.23 1.65 1.36 2.66.93 7.32 2.78 12.12 4.68 69.86 2.23 68.08 1.41 81.03.52 96.18z" fill="#fff"/><circle cx="1238.36" cy="349.54" fill="#0c182b" r="18.75"/><path d="m990.7 798.53h157.53s2.42 16-31.02 15.03c-33.45-.97-111.48.04-117.79.04s-8.72-10.71-8.72-15.07z" fill="#0c182b"/><path d="m987.11 867.27c1.06-5.55 11.39-5.82 18.9-4.85s13.81.48 14.54 12.6 2.01 38.95 0 41.69c-2 2.73-30.54 2.42-33.45 0s-.97-44.35 0-49.44z" fill="#cecece"/><path d="m1386.18 532.38c-.1 6.52-5.21 11.86-11.73 12.25-45.83 2.79-94.23 4.45-144.96 4.45-59.31 0-107.11-2.16-127.56-3.26-6.2-.33-11.21-5.17-11.76-11.36-1.95-21.94-5.71-71.83-2.03-95.31.46-2.9 1.88-5.46 3.93-7.33 2.13-1.95 4.92-3.16 7.98-3.26 45.6-1.54 92.65-2.34 141.07-2.27 43.75.06 86.38.84 127.82 2.22 3.28.11 6.26 1.49 8.43 3.68 1.87 1.88 3.15 4.38 3.52 7.18 1.89 14.45 3.42 29.94 4.35 46.37.94 16.46 1.18 32.04.94 46.64z" fill="#ffe1e6"/><ellipse cx="1003.6" cy="897.44" fill="#0c182b" rx="6.85" ry="11.8"/><path d="m564.23 570.75s-.53 6.03-3.72 13.2c-8.01 1.74-21.59 4.29-35.39 5.18-16.96 1.08-36.63-.96-44.38-1.9-2.91-5.33-3.38-9.64-3.38-9.64s68.92 15.67 86.87-6.84z" fill="#fff"/><path d="m765.44 730.71c-.89 1.31-1.95 2.3-2.96 2.73l-25.75.53z" fill="#e07785"/><path d="m1139.9 475.86v-8.14h35.6v8.14zm13.14 33.82v-41.37h9.33v41.37z" fill="#e5283f"/><path d="m1197.38 510.33c-3.45 0-6.49-.73-9.12-2.2-2.64-1.47-4.7-3.5-6.18-6.09-1.49-2.59-2.23-5.56-2.23-8.89v-25.44h9.39v25.97c0 1.66.36 3.11 1.07 4.34s1.69 2.17 2.94 2.82 2.62.98 4.13.98c1.58 0 2.97-.33 4.16-.98s2.13-1.58 2.82-2.79 1.04-2.65 1.04-4.31v-26.03h9.39v25.5c0 3.33-.73 6.28-2.2 8.86s-3.51 4.6-6.12 6.06-5.65 2.2-9.09 2.2z" fill="#e5283f"/><path d="m1219.13 475.86v-8.14h35.6v8.14zm13.14 33.82v-41.37h9.33v41.37z" fill="#e5283f"/><path d="m1276.6 510.33c-3.45 0-6.49-.73-9.12-2.2-2.64-1.47-4.7-3.5-6.18-6.09-1.49-2.59-2.23-5.56-2.23-8.89v-25.44h9.39v25.97c0 1.66.36 3.11 1.07 4.34s1.69 2.17 2.94 2.82 2.62.98 4.13.98c1.58 0 2.97-.33 4.16-.98s2.13-1.58 2.82-2.79 1.04-2.65 1.04-4.31v-26.03h9.39v25.5c0 3.33-.73 6.28-2.2 8.86s-3.51 4.6-6.12 6.06-5.65 2.2-9.09 2.2z" fill="#e5283f"/><path d="m1301.45 509.68v-41.96h9.33v41.96zm7.13-15.27v-7.25h9.03c1.15 0 2.2-.24 3.15-.71.95-.48 1.7-1.17 2.26-2.08.55-.91.83-2.02.83-3.33s-.28-2.36-.83-3.27-1.31-1.6-2.26-2.08-2-.71-3.15-.71h-9.03v-7.25h10.4c2.65 0 5.05.53 7.19 1.6s3.83 2.61 5.08 4.61 1.87 4.37 1.87 7.1-.62 5.1-1.87 7.1-2.94 3.55-5.08 4.64-4.54 1.63-7.19 1.63z" fill="#e5283f"/><path d="m767.57 747.85c-1.9 1.91-4.15 3.21-5.25 3.77l-.67.34-24.07.8z" fill="#e07785"/><path d="m769.33 762.54c-1.58 2.07-3.38 3.53-3.38 3.53l-23.92.58 27.31-4.11z" fill="#e07785"/><path d="m765.92 778c-4.32 3.24-9.55 6.63-12.49 9.04-4.11 3.33-10.07 6.95-16.69 9.3-3.33 1.2-10.67 3.37-18.18 8.33 0 0 5.08-9.82 23.69-17.96 6.46-2.83 13.05-7.54 23.69-8.71z" fill="#e07785"/><path d="m714.08 1157.54c-1.21-.02-2.39-.04-3.58-.07-7.12-.12-14.02-.23-20.7-.34l-21.41-204.3s.09.37.23 1.08c3.01 13.59 33.64 152.21 45.46 203.62z" fill="#224cb0"/><path d="m1386.18 532.38c-.1 6.52-5.21 11.86-11.73 12.25-45.83 2.79-94.23 4.45-144.96 4.45-59.31 0-107.11-2.16-127.56-3.26-6.2-.33-11.21-5.17-11.76-11.36-1.95-21.94-5.71-71.83-2.03-95.31.46-2.9 1.88-5.46 3.93-7.33-1.66 31.69-5.04 106.95 17.68 109.62 29.14 3.43 253.47 8.91 266.14-4.71 10.37-11.14.46-73.74 1.48-104.54 1.87 1.88 3.15 4.38 3.52 7.18 1.89 14.45 3.42 29.94 4.35 46.37.94 16.46 1.18 32.04.94 46.64z" fill="#fff5f7"/><path d="m336.39 700.55s45.32 33.43 51.11 77.45c3.32 25.23-19.42 67.3-11.85 67.88 7.57.59 17.64-50.83 23.42-27.69 5.79 23.14 18.76 2.81 17.61-19.46-2.39-45.97-28.21-82.75-80.28-98.18z" fill="#eaeaea"/><path d="m599 660.59s-10.95 50.97 5.11 81.9 39.21 35.25 39.21 35.25c7.86-4.63-40.19-20.78-44.32-117.15z" fill="#eaeaea"/><path d="m1516.94 1069.34s-7.49 47.05-8.55 70.57 4.28 33.97 4.28 33.97 14.97-63.91 4.28-104.54z" fill="#09959a"/><path d="m747.02 565.25c8.57 15.32 14.25 38.95 13.5 56.5-8.6-15.3-14.22-38.95-13.5-56.5z" fill="#fff"/><path d="m790.02 624.79c5.42-18.57 20.69-41.78 35.67-54.04-5.38 18.58-20.72 41.75-35.67 54.04z" fill="#fff"/><path d="m813.09 648.23c13.58-8.07 34.72-13.05 50.48-11.79-13.56 8.1-34.72 13.01-50.48 11.79z" fill="#fff"/><path d="m937.97 229.22s1.43-44.67 6.18-64.63 77.47-13.78 77.47-13.78-71.76 9.98-73.66 23.76-9.98 54.65-9.98 54.65z" fill="#09959a"/></svg>