<svg viewBox="0 0 1728 1296" xmlns="http://www.w3.org/2000/svg"><path d="m48 484.16c-35.07 266.89-37.4 498.93 61.7 578.78 169 136.16 238.02 145.24 820.18 145.25 582.16 0 772.15-29.99 772.15-517.64 0-417.08-222.17-492.86-454.39-552.86-232.21-60-1133.3-158.41-1199.64 346.47z" fill="#d8e2f8"/><path d="m334.68 731.68s1.4-13.82 24.68-12.63c23.29 1.18 79.72.99 87.07 1.58 4.94.39 7.21 8.34 9.87 16.4 2.66 8.07 63.4 171.88 64.54 178.2s5.43 16.42-8.39 19.87c-13.82 3.46-177.77-203.42-177.77-203.42z" fill="#cecece"/><path d="m509.44 935.97h-99.89c-2.48 0-4.7-1.63-5.57-4.09l-68.92-196.07c-1.44-4.11 1.43-8.47 5.57-8.47h97.46c2.46 0 4.66 1.6 5.54 4.03l71.35 196.07c1.5 4.12-1.37 8.54-5.54 8.54z" fill="#fff"/><ellipse cx="354.56" cy="749.73" fill="#08131e" rx="5.92" ry="7.4" transform="matrix(.97212492 -.2344635 .2344635 .97212492 -165.88 104.01)"/><ellipse cx="371.93" cy="749.73" fill="#08131e" rx="5.92" ry="7.4" transform="matrix(.97212492 -.2344635 .2344635 .97212492 -165.4 108.09)"/><ellipse cx="361.23" cy="770.85" fill="#08131e" rx="5.92" ry="7.4" transform="matrix(.97212492 -.2344635 .2344635 .97212492 -170.65 106.17)"/><ellipse cx="377.02" cy="770.85" fill="#08131e" rx="5.92" ry="7.4" transform="matrix(.97212492 -.2344635 .2344635 .97212492 -170.21 109.87)"/><path d="m610.01 132.92h189.98v219.43h-189.98z" fill="#83a1e7"/><path d="m625.11 150.36h159.78v184.55h-159.78z" fill="#aec2ef"/><path d="m362.92 965.66s.21-5.91 5.01-6.27c4.79-.36 46.64 24.51 46.64 24.51s-25.13 12.85-51.64-18.24z" fill="#224cb0"/><path d="m372.28 969.84s-11.4-27.77-15.35-34.87-18.16-30.79-25.26-71.05c-7.11-40.26 5.53-52.1 34.47-60.79 28.95-8.68 41.26-12.89 64.15-13.68s30.06 5.79 11.9 13.68-40.47 16.58-51.42 26.05 1.68 11.84 11.16 7.11c9.47-4.74 74.21-25.26 79.74-17.37s-64.74 39.47-64.74 39.47 66.31-15.79 72.63-6.32-57.63 38.68-57.63 38.68 45-6.32 48.95 4.74c3.95 11.05-45.07 26.05-45.79 33.95-.79 8.68 32.63 16.32 32.63 16.32s-7.37 68.16-38.16 64.21-57.28-40.12-57.28-40.12z" fill="#ffbdbb"/><path d="m1206.65 939.45-16.83 266.29-109.75-1.09-20.64-.2-371.32-3.63-13.05-.13-21.02-.2 33.4-220.34-.09.49c-.8 4.78-2.95 16.81-6.82 32.76-14.09 58.43-24.54 176.33-100.18 174.97-79.29-1.42-164.79-108.99-217.41-222.66.91 1.31 20.09 28.06 70.03 11.61 19.98-6.58 27.24-20.58 31.47-26.33 2.44-3.28 3.28-5.23 3.28-5.23s26.18 25.21 48.42 43.08v.02c10.23 8.22 19.62 14.91 25.25 16.9 7.69 2.7 12.25-28.68 17.9-69.41 0-.13.02-.24.04-.38.04-.33.09-.66.13-.97 7.49-54.02 18.91-128.55 45.09-152.41 79.38-72.34 281.05-63.15 343.15-16.83 62.11 46.31 258.94 173.69 258.94 173.69z" fill="#2e61d7"/><path d="m702.46 897.92s-2.64 222.53-14.35 302.91l-13.05-.13-21.02-.2 33.4-220.34z" fill="#224cb0"/><path d="m1242.44 948.9s-44.3 25.23-113.69 21.06c-87.6-5.27-117.9 47.35-204.21 54.73-81.55 6.98-166.94 4.27-214.22-101.49v-.04c-2.77-6.14-5.38-12.65-7.86-19.51-.91-2.48-1.82-4.89-2.77-7.24-43.54-108.99-127.75-70.01-127.75-70.01 29.99-151.17 134.73-99.58 221.04-203.79 9.59-11.58 15.84-24.16 20.02-37.61 5.45-17.43 7.49-36.32 9.01-56.44v-.04c3.21-42.08 4.25-89.41 29.9-139.6 47.38-92.63 127.38-113.69 204.21-27.38 69.79 78.38 38.87 212.36 37.34 247.31-.02.07-.02.11-.02.11-.15 3.48 0 5.98.58 7.31 1.95 4.54 8.46 12.96 17.19 25.8 19.62 28.86 50.34 80.05 64.92 159.47 21.04 114.73 66.31 147.36 66.31 147.36z" fill="#fff"/><path d="m1039.74 518.31c-4.25 29.04-17.67 50.81-33.56 66.91 0 .02-.02.02-.02.04-22.22 27.64-42.55 36.99-55.64 39.98-2.92.69-5.49 1.02-7.62 1.2h-.04c-.24.02-.49.04-.71.04-4.19.27-6.56-.2-6.56-.2s-102.66-12.62-92.36-152.36c7.44-101.11 89.21-127.91 89.21-127.91s61.82-7.04 95.53 85.27c.51 1.37 1 2.75 1.46 4.14 11.34 32.65 13.67 60.02 10.3 82.88z" fill="#ffbdbb"/><path d="m899.68 517.48c4.02-.91 5.33-3.16 12.18-1.97 3.52.61 16.47 3.15 16.47 3.15s-7.53 3.69-19.19 2.98c-2.79-.17-9.46-4.16-9.46-4.16z" fill="#e07785"/><path d="m902.05 431.88-36.51-4.49s17.37-11.89 36.51 4.49z" fill="#0c182b"/><path d="m943.1 434.25s16.18-10.46 31.97-9.28 24.47 6.91 24.47 6.91-40.07-1.38-56.45 2.37z" fill="#0c182b"/><path d="m861.2 454.97s-4.22 1.33-6.02 8.49c-1.72 6.82-1.23 19.39 7.4 22.92 3.36 1.37 21.22 2.49 30.39 0 13.23-3.59 17.76-24.09 12.04-28.34-5.32-3.95-30.39-7.84-43.81-3.07z" fill="#fff"/><path d="m861.2 454.97s3.33-4.3 16.58-3.82c19.6.71 27.24 6.88 27.24 6.88s-25.99-6.62-43.81-3.07z" fill="#0c182b"/><path d="m879.95 487.72c-6.1.52-13.22-6.71-11.05-17.96s8.88-10.46 12.83-10.26 10.46 6.71 10.07 15.39-4.93 12.24-11.84 12.83z" fill="#0c182b"/><path d="m948.83 452.64s20.5-2.27 38.68 1.54c4.24.89 6.15 12.27 3.75 17.52-3.42 7.47-10.6 10.09-10.6 10.09s-10.42 5.45-29.67 1.5c-11.22-2.3-15.2-18.96-2.17-30.65z" fill="#fff"/><path d="m965.41 485.36c-6.12-.03-13.43-5.95-11.26-17.65s8.88-10.88 12.83-10.67 10.44 5.1 10.04 14.13c-.39 9.03-4.32 14.23-11.62 14.19z" fill="#0c182b"/><path d="m862.58 486.38s7.7 2.54 16.18 2.74c8.49.2 14.21-2.74 14.21-2.74s-18.95 3.18-30.39 0z" fill="#0c182b"/><path d="m948.83 452.64s3.74-3.35 15.2-2.93c22.4.81 23.49 4.47 23.49 4.47s-25.26-3.47-38.68-1.54z" fill="#0c182b"/><path d="m951 483.29s9.47 3.39 17.17 2.39 12.63-3.97 12.63-3.97-5.72 3.55-29.8 1.58z" fill="#0c182b"/><path d="m914.56 485.36s-5.32 24.34-8.59 30.02c-3.26 5.68 18.05 3.04 18.05 3.04s-11.94-.57-12.77-2.27 4.12-24.12 3.31-30.79z" fill="#0c182b"/><path d="m888.5 555.49s10.26 20 38.68 15 40.99-24.21 40.99-24.21-38.09 15-79.67 9.21z" fill="#0c182b"/><path d="m437.38 926.2 30.34 19.55s-.09 5.59-5.53 5c-15.6-1.68-37.18-15.65-24.81-24.55z" fill="#e07785"/><path d="m553.11 1026.98c-24.36-4.61-79.47-49.92-88.66-75.99 2.44-3.28 3.28-5.23 3.28-5.23s26.18 25.21 48.42 43.08v.02c10.23 8.22 19.62 14.91 25.25 16.9 7.69 2.7 12.25-28.68 17.9-69.41-6.09 44.25 22.95 96.15-6.18 90.63z" fill="#224cb0"/><path d="m1080.07 997.02v207.63l-20.64-.28z" fill="#224cb0"/><path d="m687.35 980.64c-.8 4.78-2.95 16.81-6.82 32.76z" fill="#5c32b8"/><path d="m251.99 515.26c9.17 62.66 50.95 146.84 50.95 146.84s-14.74-21.05 92.63-44.21 234.73-55.37 218.94-120.84-31.58-115.99-67.37-127.57-307.79 59.47-295.16 145.79z" fill="#fff"/><g fill="#0cc4cb"><path d="m307.14 492.39-2.32-6.98 30.53-10.14 2.32 6.98zm20.9 25.26-11.78-35.48 8-2.66 11.78 35.48z"/><path d="m346.13 511.65-8.23-24.77 7.8-2.59 8.23 24.77zm3.28-16.2-4.11-1.47c-.31-3.1.03-5.71 1.03-7.81 1-2.11 2.86-3.61 5.58-4.51 1.19-.4 2.29-.56 3.31-.51 1.02.06 1.99.35 2.92.87l-2.69 7.4c-.46-.26-.98-.41-1.56-.44s-1.19.06-1.83.27c-1.29.43-2.19 1.17-2.69 2.22s-.48 2.38.05 3.97z"/><path d="m377.7 501.73c-2.28.76-4.49.87-6.65.34s-4.07-1.59-5.75-3.18-2.93-3.63-3.76-6.11c-.82-2.48-1.04-4.86-.65-7.14s1.3-4.28 2.71-5.99 3.26-2.95 5.53-3.71c1.67-.55 3.28-.73 4.83-.53 1.56.2 2.95.73 4.18 1.58 1.23.86 2.13 2 2.72 3.43l3.55 10.7c.38 1.5.35 2.95-.11 4.37-.46 1.41-1.25 2.67-2.4 3.77s-2.55 1.92-4.21 2.47zm-.76-7.56c1.66-.55 2.82-1.55 3.48-2.99.65-1.44.7-3.01.13-4.71-.38-1.15-.95-2.1-1.7-2.83s-1.63-1.2-2.62-1.42c-1-.22-2.04-.14-3.13.22s-1.97.93-2.63 1.7c-.67.77-1.1 1.68-1.3 2.72-.2 1.05-.11 2.15.28 3.3.37 1.12.94 2.05 1.71 2.77.77.73 1.66 1.2 2.68 1.43s2.05.17 3.11-.18zm7.42 4.78-2.22-6.68-.82-6.41-3.17-5.62-2.01-6.07 7.65-2.54 8.23 24.77-7.65 2.54z"/><path d="m397.52 494.58-8.23-24.77 7.8-2.59 8.23 24.77zm16.36-5.43-4.69-14.12c-.43-1.29-1.18-2.2-2.24-2.74-1.06-.53-2.21-.6-3.43-.19-.85.28-1.54.71-2.07 1.28s-.87 1.25-1.02 2.04-.09 1.6.19 2.45l-3.5-.48c-.64-1.94-.78-3.78-.42-5.52s1.17-3.26 2.42-4.56 2.82-2.27 4.73-2.9c1.83-.61 3.6-.71 5.3-.32 1.7.4 3.19 1.18 4.48 2.33 1.29 1.16 2.22 2.58 2.78 4.28l5.26 15.85-7.8 2.59z"/><path d="m435.9 482.52c-1.46.49-2.96.77-4.49.87-1.53.09-3.02 0-4.46-.3s-2.73-.76-3.89-1.4l2.95-5.96c1.11.61 2.31.98 3.59 1.1 1.29.12 2.59-.04 3.92-.48.92-.3 1.58-.67 1.98-1.11s.52-.89.37-1.37c-.2-.61-.66-.98-1.36-1.11s-1.55-.16-2.56-.11-2.06.09-3.18.12-2.23-.07-3.33-.31-2.1-.75-3-1.52c-.9-.78-1.6-1.91-2.09-3.41-.53-1.6-.58-3.12-.16-4.56.43-1.44 1.27-2.75 2.54-3.93s2.91-2.1 4.91-2.76c2.11-.7 4.17-.98 6.2-.84s3.84.74 5.43 1.79l-2.95 5.96c-1.09-.66-2.18-1.01-3.27-1.07-1.09-.05-2.1.07-3.02.38-.88.29-1.5.64-1.86 1.04s-.46.84-.3 1.32c.17.51.59.82 1.27.94.68.11 1.52.14 2.51.07 1-.07 2.06-.1 3.19-.1s2.25.14 3.36.41 2.11.8 3.01 1.58 1.61 1.95 2.13 3.51c.8 2.41.53 4.64-.81 6.67s-3.56 3.56-6.65 4.59z"/><path d="m460.53 474.23c-2.28.76-4.49.87-6.65.34s-4.08-1.59-5.75-3.18c-1.68-1.59-2.93-3.63-3.76-6.11-.82-2.48-1.04-4.86-.65-7.14s1.3-4.28 2.71-5.99 3.26-2.95 5.53-3.71c1.67-.55 3.28-.73 4.83-.53 1.56.2 2.95.73 4.18 1.58 1.23.86 2.13 2 2.72 3.43l3.55 10.7c.38 1.5.35 2.95-.11 4.37-.46 1.41-1.25 2.67-2.4 3.77s-2.55 1.92-4.22 2.47zm-.76-7.56c1.66-.55 2.82-1.55 3.48-2.99.65-1.44.7-3.01.13-4.71-.38-1.15-.95-2.1-1.7-2.83s-1.63-1.2-2.62-1.42c-1-.22-2.04-.14-3.13.22s-1.96.93-2.63 1.7-1.1 1.68-1.3 2.72c-.2 1.05-.11 2.15.28 3.3.37 1.12.94 2.05 1.71 2.77.77.73 1.66 1.2 2.68 1.43s2.05.17 3.11-.18zm7.42 4.78-2.22-6.68-.82-6.41-3.17-5.62-2.01-6.07 7.65-2.54 8.23 24.77-7.65 2.54z"/><path d="m480.35 467.08-12.29-37.01 7.8-2.59 12.29 37.01zm15.85-5.26-12.93-9.97 4.65-14.79 8.72-2.89-5.95 16.86-.81-3.3 15.49 11.04-9.18 3.05z"/><path d="m515.98 455.93c-1.46.48-2.96.77-4.49.87s-3.02 0-4.46-.3-2.73-.76-3.89-1.4l2.95-5.96c1.11.61 2.31.98 3.59 1.1 1.29.12 2.59-.04 3.92-.48.92-.3 1.58-.67 1.98-1.11s.52-.89.37-1.37c-.2-.61-.66-.98-1.36-1.1-.7-.13-1.55-.16-2.56-.11-1 .05-2.06.09-3.18.12s-2.23-.07-3.33-.31-2.1-.75-3-1.52c-.9-.78-1.6-1.91-2.09-3.41-.53-1.6-.58-3.12-.16-4.56.43-1.44 1.27-2.75 2.54-3.93 1.27-1.17 2.91-2.1 4.91-2.76 2.11-.7 4.17-.98 6.2-.84s3.84.74 5.43 1.79l-2.95 5.96c-1.09-.66-2.18-1.01-3.27-1.07-1.09-.05-2.1.07-3.02.38-.88.29-1.5.64-1.86 1.04s-.46.84-.3 1.32c.17.51.59.82 1.27.94.68.11 1.52.14 2.51.07 1-.07 2.06-.1 3.19-.1s2.25.14 3.36.41 2.11.8 3.01 1.58 1.61 1.95 2.13 3.51c.8 2.41.53 4.64-.81 6.67s-3.56 3.56-6.65 4.59z"/><path d="m524.66 421.07c-1.22.41-2.37.33-3.45-.24s-1.81-1.44-2.21-2.64c-.41-1.22-.35-2.37.18-3.46.53-1.08 1.4-1.82 2.63-2.23 1.22-.41 2.36-.33 3.41.22 1.05.56 1.78 1.45 2.19 2.67.4 1.19.34 2.33-.17 3.42s-1.37 1.84-2.59 2.25zm5.43 29.49-8.23-24.77 7.8-2.59 8.23 24.77z"/><path d="m339.53 581.75-11.95-35.99 7.9-2.62 11.95 35.99zm6.12-2.03-2.07-6.22 8.46-2.81c1.56-.52 2.63-1.38 3.21-2.6.58-1.21.65-2.48.21-3.8-.3-.92-.78-1.67-1.42-2.24-.64-.58-1.4-.95-2.27-1.12-.87-.16-1.83-.07-2.88.28l-8.46 2.81-2.01-6.07 7.8-2.59c1.33-.44 2.29-1.13 2.88-2.06.6-.93.67-2.08.22-3.44-.44-1.33-1.18-2.19-2.21-2.58-1.04-.39-2.22-.37-3.54.07l-7.8 2.59-2.06-6.22 9.33-3.1c2.31-.77 4.41-.99 6.31-.68s3.51 1.04 4.83 2.19 2.27 2.58 2.85 4.32c.73 2.21.64 4.31-.28 6.32-.92 2-2.68 3.76-5.27 5.26l-.69-2.77c3.22-.43 5.94-.03 8.18 1.19 2.23 1.22 3.78 3.12 4.64 5.7.65 1.97.76 3.91.32 5.81s-1.42 3.61-2.94 5.13c-1.51 1.52-3.54 2.71-6.09 3.55l-9.23 3.06z"/><path d="m383.91 567.64c-2.68.89-5.25 1.13-7.71.72s-4.61-1.4-6.45-2.98-3.18-3.6-4-6.09c-.82-2.48-.97-4.89-.45-7.24.52-2.34 1.6-4.41 3.23-6.19 1.63-1.79 3.71-3.1 6.22-3.93 2.45-.81 4.78-1 7-.57s4.17 1.4 5.86 2.92c1.69 1.51 2.94 3.48 3.74 5.89.15.44.28.92.39 1.43s.21 1.11.29 1.8l-21.34 7.14-1.78-5.35 18.03-6.04-2.62 3.36c-.51-1.42-1.12-2.52-1.84-3.32s-1.56-1.31-2.52-1.54-2.02-.15-3.18.23c-1.22.41-2.19 1.04-2.91 1.9s-1.15 1.88-1.3 3.06.01 2.51.5 3.97 1.16 2.62 2.03 3.48 1.88 1.41 3.04 1.65c1.15.24 2.39.14 3.72-.3 1.22-.41 2.26-.98 3.1-1.74.84-.75 1.5-1.68 1.97-2.78l5.7 2.86c-.75 1.83-1.87 3.4-3.37 4.68-1.5 1.29-3.28 2.28-5.35 2.97z"/><path d="m399.42 561.86-8.23-24.77 7.8-2.59 8.23 24.77zm3.28-16.2-4.11-1.47c-.31-3.1.03-5.71 1.03-7.81s2.86-3.61 5.58-4.51c1.19-.4 2.29-.56 3.31-.51 1.02.06 1.99.35 2.92.87l-2.69 7.4c-.46-.26-.98-.41-1.56-.44s-1.19.05-1.83.27c-1.29.43-2.19 1.17-2.69 2.22s-.48 2.38.05 3.97z"/><path d="m421.14 554.65-12.29-37.01 7.8-2.59 12.29 37.01zm16.36-5.43-4.69-14.12c-.43-1.29-1.18-2.2-2.24-2.74-1.06-.53-2.21-.6-3.43-.19-.85.28-1.54.71-2.07 1.28s-.87 1.25-1.02 2.04-.09 1.6.19 2.45l-3.5-.48c-.64-1.94-.8-3.77-.47-5.5s1.09-3.24 2.29-4.52 2.74-2.24 4.65-2.87c1.94-.64 3.77-.81 5.49-.5 1.73.31 3.22 1.04 4.49 2.19s2.21 2.65 2.83 4.52l5.26 15.85-7.8 2.59z"/><path d="m460.81 542.05c-2.28.76-4.49.87-6.65.34s-4.08-1.59-5.75-3.18c-1.68-1.59-2.93-3.63-3.76-6.11s-1.04-4.86-.65-7.14 1.3-4.28 2.71-5.99 3.26-2.95 5.53-3.7c1.67-.55 3.28-.73 4.83-.53 1.56.2 2.95.73 4.18 1.58 1.23.86 2.14 2 2.72 3.43l3.55 10.7c.38 1.5.35 2.95-.11 4.37-.46 1.41-1.25 2.67-2.4 3.77s-2.55 1.92-4.21 2.48zm-.76-7.56c1.67-.55 2.83-1.55 3.48-2.99s.7-3.01.13-4.71c-.38-1.16-.95-2.1-1.7-2.83s-1.63-1.2-2.62-1.42c-1-.22-2.04-.14-3.13.22s-1.96.93-2.63 1.7-1.1 1.68-1.3 2.72c-.2 1.05-.11 2.15.28 3.3.37 1.12.94 2.05 1.71 2.77.77.73 1.66 1.2 2.68 1.43s2.05.17 3.11-.18zm7.42 4.78-2.22-6.68-.83-6.4-3.17-5.63-2.01-6.06 7.65-2.54 8.23 24.77z"/><path d="m489.85 532.52c-1.46.49-2.96.77-4.49.87-1.53.09-3.02 0-4.46-.3s-2.73-.76-3.89-1.4l2.95-5.96c1.11.61 2.31.98 3.59 1.1 1.29.12 2.59-.04 3.92-.48.92-.3 1.58-.67 1.98-1.11s.52-.89.37-1.37c-.2-.61-.66-.98-1.36-1.1s-1.55-.16-2.56-.11c-1 .05-2.06.09-3.18.12s-2.23-.07-3.33-.31-2.1-.75-3-1.52c-.9-.78-1.6-1.91-2.09-3.41-.53-1.6-.58-3.12-.16-4.56.43-1.44 1.27-2.75 2.54-3.93s2.91-2.1 4.91-2.76c2.11-.7 4.17-.98 6.2-.84s3.84.73 5.43 1.79l-2.94 5.96c-1.09-.66-2.18-1.01-3.27-1.06s-2.1.07-3.02.38c-.88.29-1.5.64-1.86 1.04s-.46.84-.3 1.32c.17.51.59.82 1.27.94.68.11 1.52.14 2.51.07 1-.07 2.06-.1 3.19-.1s2.25.14 3.36.41 2.11.8 3.01 1.57c.9.78 1.61 1.95 2.13 3.51.8 2.41.53 4.64-.81 6.67s-3.56 3.56-6.66 4.59z"/><path d="m498.54 497.66c-1.22.41-2.37.33-3.45-.24s-1.81-1.44-2.2-2.63c-.41-1.22-.35-2.38.18-3.46s1.4-1.82 2.63-2.23c1.22-.41 2.36-.33 3.41.23s1.78 1.45 2.19 2.67c.4 1.19.34 2.33-.17 3.42s-1.37 1.84-2.59 2.25zm5.43 29.49-8.23-24.77 7.8-2.59 8.23 24.77z"/><path d="m517.27 522.73-12.29-37.01 7.8-2.59 12.29 37.01z"/></g><path d="m1421.23 511.2c-2.31 43.17-74.38 80.26-74.38 80.26s-67.71-44.57-65.4-87.74c2.31-43.19 65.84-53.5 70.65-10.55 10.95-42.11 71.44-25.17 69.13 18.03z" fill="#e5283f"/><path d="m1296.07 623.09c-1.26 23.59-40.64 43.85-40.64 43.85s-36.99-24.35-35.73-47.94c1.26-23.6 35.97-29.23 38.6-5.76 5.98-23.01 39.03-13.75 37.77 9.85z" fill="#e5283f"/><path d="m1213.4 722.62c-.63 11.72-20.19 21.79-20.19 21.79s-18.38-12.1-17.75-23.82 17.87-14.52 19.18-2.86c2.97-11.43 19.39-6.83 18.76 4.89z" fill="#e5283f"/><path d="m924.02 685.89c-1.15-.38-95.81-36.04-111.02-100.89 5.45-17.43 7.49-36.32 9.01-56.44.07 2.15 7.28 59.45 37.01 100.09 21.89 29.92 64.49 56.95 65 57.24z" fill="#eaeaea"/><path d="m987.71 746.24c.78-.2 3.68-.95 8.11-2.33-4.5 1.55-7.35 2.17-8.11 2.33z" fill="#ffe8b4"/><path d="m1111.21 642.08c-13.73 64.76-89.44 93.71-115.15 101.75 11.67-4.08 33.98-14.35 58.76-38.61 36.3-35.53 38.63-96.26 38.63-96.26-.15 3.48 0 5.98.58 7.31 1.95 4.54 8.46 12.96 17.19 25.8z" fill="#eaeaea"/><path d="m710.32 923.17c-2.77-6.14-5.38-12.65-7.86-19.51-.91-2.48-1.82-4.89-2.77-7.24 2.24-29.44 6.18-83.81 6.18-83.81s-2.15 85.34 4.45 110.57z" fill="#aec2ef"/><path d="m1039.74 518.31c-4.25 29.04-17.67 50.81-33.56 66.91 0 .02-.02.02-.02.04-22.22 27.64-42.55 36.99-55.64 39.98-2.48.47-5.01.86-7.62 1.2h-.04c-.33.04-.66.09-1.02.13.11-.02.2-.04.31-.09 57.59-14.71 109.24-96.96 87.14-171.91-35.39-119.98-96.84-108.56-96.84-108.56s61.82-7.04 95.53 85.27c.51 1.37 1 2.75 1.46 4.14 8.86 26.05 12.82 55.26 10.3 82.88z" fill="#e07785"/><path d="m320.7 732.44s-9.57-16.66-2.13-21.98 19.27-5.54 19.27-5.54-13.34 6.07-16.61 8.19c-4.49 2.92-1.25 19.16-.53 19.32z" fill="#2e61d7"/><path d="m311.44 725.32s-9.57-16.66-2.13-21.98 19.27-5.54 19.27-5.54-13.34 6.07-16.61 8.19c-4.49 2.92-1.25 19.16-.53 19.32z" fill="#2e61d7"/><path d="m528.46 916.15s9.57 16.66 2.13 21.98-19.27 5.54-19.27 5.54 13.34-6.07 16.61-8.19c4.49-2.92 1.25-19.16.53-19.32z" fill="#2e61d7"/><path d="m537.72 923.28s9.57 16.66 2.13 21.98-19.27 5.54-19.27 5.54 13.34-6.07 16.61-8.19c4.49-2.92 1.25-19.16.53-19.32z" fill="#2e61d7"/><path d="m861.2 784.13s22.65 48.95 77.77 47.52 77.77 36.23 77.77 36.23-37.89-45.33-84.29-55.28c-46.39-9.96-44.54-5.69-71.25-28.47z" fill="#eaeaea"/><path d="m840.08 1141.01c-36.83-21.23 70.26 15.79 109.73 27.63s46 11.05 46 11.05-88.63 0-155.74-38.68z" fill="#224cb0"/><path d="m390.54 290.85c-66.49.24-74.8 8.55-74.82 74.82.01-66.26-8.3-74.58-74.79-74.82 66.49.24 74.8-8.01 74.79-74.28.01 66.26 8.32 74.52 74.82 74.28z" fill="#fff"/><path d="m559.77 676.26c-33.25.12-37.4 4.28-37.41 37.41 0-33.13-4.15-37.29-37.39-37.41 33.25.12 37.4-4.01 37.39-37.14 0 33.13 4.16 37.26 37.41 37.14z" fill="#fff"/><path d="m1222.17 431.74c-33.25.12-37.4 4.28-37.41 37.41 0-33.13-4.15-37.29-37.39-37.41 33.25.12 37.4-4.01 37.39-37.14 0 33.13 4.16 37.26 37.41 37.14z" fill="#fff"/><path d="m958.65 213.98c-45.75.17-51.47 5.88-51.48 51.48 0-45.59-5.71-51.31-51.46-51.48 45.75.17 51.47-5.51 51.46-51.1 0 45.59 5.73 51.27 51.48 51.1z" fill="#fff"/><path d="m238.56 897.73c-45.75.17-51.47 5.88-51.48 51.48 0-45.59-5.71-51.31-51.46-51.48 45.75.17 51.47-5.51 51.46-51.1 0 45.59 5.73 51.27 51.48 51.1z" fill="#fff"/></svg>