<svg viewBox="0 0 1728 1296" xmlns="http://www.w3.org/2000/svg" xmlns:xlink="http://www.w3.org/1999/xlink"><linearGradient id="a" gradientUnits="userSpaceOnUse" x1="859.19" x2="859.19" y1="131.58" y2="1009.52"><stop offset="0" stop-color="#fff"/><stop offset="1" stop-color="#d8e2f8" stop-opacity=".5"/></linearGradient><path d="m1672.81 832.43c-2.46 39.97-7.38 78.21-14.92 113.17-5.91 27.41-13.43 52.81-22.7 75.47-26.71 65.52-67.76 108.14-125.38 110.06-69.08 2.29-181.17 9.23-312.89 15.68-115.7 5.67-246.52 10.96-376.6 12.4-4.4.05-8.81.09-13.21.12-1.54.02-3.09.02-4.62.03-3.49.03-6.98.05-10.47.07-10.05.07-20.1.1-30.13.12-3.82 0-7.64 0-11.44.02-127-.07-250.51-4.45-355.53-16.47-164.42-18.81-283.48-56.3-299.46-125.12-2.06-8.9-4.83-21.32-7.95-36.65-2.15-10.59-4.47-22.57-6.82-35.74-5.69-31.78-11.62-70.48-16.01-113.17-17.71-171.44-57.6-510.1 111.33-578.62 294.35-119.39 1061.7-91.36 1357.67-5.41 165.33 48.01 153.48 350.7 139.12 584.04z" fill="#d8e2f8"/><path d="m1533.69 855.38s131.75 55.26 124.21 90.22c-5.91 27.41-13.43 52.81-22.7 75.47-26.71 65.52-67.76 108.14-125.38 110.06-69.08 2.29-181.17 9.23-312.89 15.68-115.7 5.67-246.52 10.96-376.6 12.4-4.4.05-8.81.09-13.21.12-1.54.02-3.09.02-4.62.03-3.49.03-6.98.05-10.47.07-10.05.07-20.1.1-30.13.12-3.82 0-7.64 0-11.44.02-127-.07-250.51-4.45-355.53-16.47-164.42-18.81-283.48-56.3-299.46-125.12-2.06-8.9-4.83-21.32-7.95-36.65-2.15-10.59-4.47-22.57-6.82-35.74-5.69-31.78 121.09-90.22 121.09-90.22h1331.9z" fill="#193a85"/><path d="m739.03 1020.17-6.84 32.33h205.19l-7.67-32.33z" fill="#83a1e7"/><path d="m911.58 993.64-8.25 30.74-4.59 17.11h-117.44l-4.25-17.22-7.56-30.63z" fill="#fff"/><path d="m911.58 993.64-8.25 30.74c-19.12.85-38.99 1.34-59.54 1.38-23.15.05-45.43-.51-66.74-1.48l-7.55-30.63h142.09z" fill="#d8e2f8"/><path d="m1094.44 1015.65h-498.45c-11.9 0-19.52-12.67-13.95-23.18l87.41-164.91c2.74-5.16 8.11-8.39 13.95-8.39h335.01c6.16 0 11.76 3.58 14.34 9.18l76.03 164.91c4.82 10.46-2.82 22.4-14.34 22.4z" fill="#0c182b"/><path d="m1080.25 1005.7h-470.06c-11.22 0-18.41-11.67-13.16-21.35l82.43-151.86c2.58-4.76 7.64-7.73 13.16-7.73h315.93c5.81 0 11.09 3.3 13.52 8.45l71.7 151.86c4.55 9.63-2.66 20.63-13.52 20.63z" fill="#2e61d7"/><path d="m1057.45 995.34h-350.67c-8.37 0-13.74-10.5-9.81-19.22l61.49-136.73c1.93-4.28 5.7-6.96 9.81-6.96h235.68c4.33 0 8.27 2.97 10.09 7.61l53.49 136.73c3.39 8.67-1.98 18.57-10.09 18.57z" fill="#fff"/><path d="m602.38 1005.7h481.59l480.34-869.28h-1410.25z" fill="url(#a)"/><path d="m670.26 928.05c-5.23 13.05-11.72 19.9-23.1 28.18-6.65 4.83-18.56 9.85-29.61 14.32-7.89 3.19-15.34 6.09-20.15 8.43-13.43 6.55-33.73 30.84-33.73 30.84s-136.58-57.57-94.51-64.22c43.53-6.89 76.42-27.46 76.42-27.46s2.48-3.5 7.09-8.83c10.73-12.42 33-34.77 62.13-45.79 44.55-16.85 39.8-7.95 39.8-7.95s-.31 6.78-9.59 16.65c-45.27 48.12-18.5 59.69-18.5 59.69s7.13 3.82 21.58-8.94 27.81-8.98 22.17 5.08z" fill="#fcb5b1"/><path d="m607.78 213.83c-22.23 45.65 11.46 113.22 86.56 111.68 75.1-1.55 82.63-76.17 71.37-111.68-19.9-62.73-121.87-74.07-157.94 0z" fill="#d8e2f8"/><path d="m1204.19 952.3-114.31 106.16s-9.74-18.14-35.68-40.14c-9.4-7.98-23.29-10.09-35.08-12.62h-.02c-8.96-1.92-16.7-4.09-20.37-9.24-7.94-11.16-4.34-40.6-4.34-40.6s1.39-9.55-23.34-22.94c-16.43-8.89-25.22-24.4-18.51-29.74 7.7-6.13 48.61 12.79 61.83 18.76 13.22 5.96 16.65-16.85 43.72-20.91s32.21-11.91 62.01 12.77c29.81 24.69 13.02 23.35 31 28.51 16.41 4.71 53.09 9.99 53.09 9.99z" fill="#fcb5b1"/><path d="m563.45 1028.93-5.61 3.8-162.91 110.38c-14.81-1.69-29.24-3.54-43.27-5.54-141.76-20.27-241.65-56.95-256.19-119.57-2.06-8.9-4.83-21.32-7.96-36.66l339.1-35.74 55.79-5.88s16.12-.23 35.55 5.88c14.39 4.5 30.6 12.47 43.47 26.55 30.24 33.13 2.03 56.78 2.03 56.78z" fill="#2e61d7"/><path d="m1635.2 1021.07c-26.71 65.52-67.76 108.14-125.38 110.06-52 1.72-128.36 6.07-219.13 10.87-29.81 1.59-61.19 3.21-93.76 4.81-62.38-41.91-116.53-92.14-128.35-106.96h-.01s30.33-78.29 103.31-94.25z" fill="#2e61d7"/><path d="m442.14 287.57c-74.32-22.51-109.35 44.56-113.08 89.43-3.73 44.88 93.57 135.04 165.27 62.29s21.71-129.33-52.2-151.72z" fill="#d8e2f8"/><path d="m992.05 198.56c-71.41-4.5-100.62 50.37-104.36 95.25-3.73 44.88 79.49 123.52 156.55 56.47 57.97-50.43 24.87-146.86-52.2-151.72z" fill="#d8e2f8"/><g fill="#fff"><path d="m692.6 623.87s-27.07 7-36.4-54.55c-9.33-61.56-83.94-97-83.94-97s88.81 0 99.18 86.43c8.88 74.05 21.16 65.12 21.16 65.12z"/><path d="m877.01 710.51s-34.2-23.63-23.63-79.59 36.06-75.24 36.06-75.24-36.06 75.24-12.44 154.83z"/><path d="m889.45 532.05s1.24-40.42-16.79-71.51-19.28-56.58-19.28-56.58 13.19 34.41 28.74 57.41c15.55 23.01 7.33 70.68 7.33 70.68z"/><path d="m1025.88 671.96c0-50.57 36.48-75.24 47.67-107.57s17.41-73.99 17.41-73.99 26.86 90.78-13.68 119.39c-30.37 21.43-51.4 62.18-51.4 62.18z"/><path d="m719.75 652.68s19.28 10.57 14.92 25.49-18.65 14.92-18.65 14.92 11.19-13.06 3.73-40.42z"/></g><path d="m466.29 361.83v-.15c-.02-.06-.03-.13-.04-.19v-.11c-.04-.08-.04-.15-.08-.23v-.08l-5.4-18.94c-.76-2.58-3.12-4.35-5.81-4.38h-55.84c-2.69.02-5.05 1.8-5.81 4.38l-5.4 18.94v.08c-.04.08-.04.15-.08.23v.11c0 .06-.02.13-.04.19v6.26c0 4.75 2.24 9.22 6.04 12.07v24.15c0 3.33 2.7 6.04 6.04 6.04h54.33c3.33 0 6.04-2.7 6.04-6.04v-24.15c3.8-2.85 6.04-7.32 6.04-12.07v-6.11zm-72.44 3.09h18.11v3.02c0 5-4.05 9.06-9.05 9.06-1.46 0-2.9-.35-4.2-1.03-.21-.17-.44-.3-.68-.42-2.61-1.66-4.19-4.53-4.19-7.62v-3.02zm42.26 3.02c0 5-4.05 9.05-9.05 9.05s-9.05-4.05-9.05-9.05v-3.02h18.11v3.02zm19.96 7.62c-.24.11-.47.25-.68.42-4.43 2.31-9.9.59-12.22-3.84-.68-1.3-1.03-2.73-1.03-4.2v-3.02h18.11v3.02c0 3.09-1.58 5.97-4.19 7.62z" fill="#2e61d7"/><path d="m634.99 187.24h104.67v104.67h-104.67z" fill="none"/><path d="m729.84 210.14h-85.04c-3.61 0-6.54 2.93-6.54 6.54v45.79c0 3.61 2.93 6.54 6.54 6.54h85.04c3.61 0 6.54-2.93 6.54-6.54v-45.79c0-3.61-2.93-6.54-6.54-6.54zm-64.19 52.33-20.85-17.87v-10.06l20.85-17.87h43.34l20.85 17.87v10.06l-20.85 17.87zm38.02-22.9c0 9.03-7.32 16.35-16.35 16.35s-16.35-7.32-16.35-16.35 7.32-16.35 16.35-16.35 16.35 7.32 16.35 16.35z" fill="#2e61d7"/><path d="m929.6 236.26h102.05v102.05h-102.05z" fill="none"/><path d="m1014.79 269.07-22.32-22.32c-.61-.59-1.42-.92-2.27-.92h-38.27c-3.52 0-6.38 2.86-6.38 6.38v70.16c0 3.52 2.86 6.38 6.38 6.38h57.4c3.52 0 6.38-2.86 6.38-6.38v-51.03c0-.85-.32-1.66-.92-2.27zm-21.41 37.35h-25.51c-1.76 0-3.19-1.43-3.19-3.19s1.43-3.19 3.19-3.19h25.51c1.76 0 3.19 1.43 3.19 3.19s-1.43 3.19-3.19 3.19zm0-12.76h-25.51c-1.76 0-3.19-1.43-3.19-3.19s1.43-3.19 3.19-3.19h25.51c1.76 0 3.19 1.43 3.19 3.19s-1.43 3.19-3.19 3.19zm-3.19-22.32v-17.54l17.54 17.54z" fill="#2e61d7"/><path d="m588.03 622.06c-52.37.19-58.92 6.74-58.93 58.93 0-52.19-6.54-58.74-58.91-58.93 52.37.19 58.92-6.31 58.91-58.5 0 52.19 6.56 58.69 58.93 58.5z" fill="#fff"/><path d="m1313.25 503.86c-52.37.19-58.92 6.74-58.93 58.93 0-52.19-6.54-58.74-58.91-58.93 52.37.19 58.92-6.31 58.91-58.5 0 52.19 6.56 58.69 58.93 58.5z" fill="#fff"/><path d="m1050.59 490.3c-21.96.08-24.71 2.83-24.71 24.71 0-21.89-2.74-24.63-24.7-24.71 21.96.08 24.71-2.65 24.7-24.53 0 21.89 2.75 24.61 24.71 24.53z" fill="#fff"/><path d="m731.03 378.74c-21.96.08-24.71 2.83-24.71 24.71 0-21.89-2.74-24.63-24.7-24.71 21.96.08 24.71-2.65 24.7-24.53 0 21.89 2.75 24.61 24.71 24.53z" fill="#fff"/><path d="m829.03 757.87c-21.96.08-24.71 2.83-24.71 24.71 0-21.89-2.74-24.63-24.7-24.71 21.96.08 24.71-2.65 24.7-24.53 0 21.89 2.75 24.61 24.71 24.53z" fill="#fff"/><path d="m557.84 1032.73-162.91 110.38c-14.81-1.69-29.24-3.54-43.27-5.54 66.36-37.72 155.49-85.9 206.18-104.84z" fill="#224cb0"/><path d="m1290.69 1142c-29.81 1.59-61.19 3.21-93.76 4.81-62.38-41.91-116.53-92.14-128.35-106.96 29.95 18.72 64.73 38.17 104.31 56.57 42.38 19.7 82.2 34.44 117.8 45.58z" fill="#224cb0"/><path d="m1120.1 913.8c-98.4-15.08-100.98 91.9-100.98 91.9h-.02c-8.96-1.92-16.7-4.09-20.37-9.24-7.94-11.16-4.34-40.6-4.34-40.6s1.39-9.55-23.34-22.94c-16.43-8.89-25.22-24.4-18.51-29.74 7.7-6.13 48.61 12.79 61.83 18.76 13.22 5.96 16.65-16.85 43.72-20.91s32.21-11.91 62.01 12.77z" fill="#d8e2f8" opacity=".48"/><path d="m670.26 928.05c-5.23 13.05-11.72 19.9-23.1 28.18-6.65 4.83-18.56 9.85-29.61 14.32 14.87-86.57-64.88-61.24-64.88-61.24 10.73-12.42 33-34.77 62.13-45.79 44.55-16.85 39.8-7.95 39.8-7.95s-.31 6.78-9.59 16.65c-45.27 48.12-18.5 59.69-18.5 59.69s7.13 3.82 21.58-8.94 27.81-8.98 22.17 5.08z" fill="#d8e2f8" opacity=".48"/><path d="m1204.21 337.96c-.69-25.4 12.1-105.21 103.54-97.64s103.11 82.24 90.27 117.03-36.82 77.1-108.31 65.27-84.33-41.85-85.5-84.66z" fill="#d8e2f8"/><path d="m1245.79 274.75h114.97v114.97h-114.97z" fill="none"/><path d="m1288.91 371.76c0 3.97-3.22 7.19-7.19 7.19s-7.19-3.22-7.19-7.19 3.22-7.19 7.19-7.19 7.19 3.22 7.19 7.19zm39.52-7.19c-3.97 0-7.19 3.22-7.19 7.19s3.22 7.19 7.19 7.19 7.19-3.22 7.19-7.19-3.22-7.19-7.19-7.19zm19.8-59.64c-.68-.9-1.74-1.43-2.87-1.44h-77.87l-3.64-12.75c-.9-3.08-3.71-5.2-6.92-5.21h-7.54c-1.98 0-3.59 1.61-3.59 3.59s1.61 3.59 3.59 3.59h7.54l4.4 15.31v.09l11.86 41.45c1.34 4.62 5.56 7.8 10.37 7.81h43.02c4.81 0 9.04-3.19 10.37-7.81l11.86-41.5c.31-1.08.09-2.24-.58-3.14z" fill="#2e61d7"/></svg>